<svg xmlns="http://www.w3.org/2000/svg" viewBox="0 0 500 448.34"><defs><style>.cls-1{fill:#d3d6b2;}.cls-2{fill:#d1e6ec;}.cls-3{fill:#4c6355;}.cls-4{fill:#6b7511;}.cls-5{fill:#8d9350;}.cls-6{fill:#798408;}.cls-7{fill:#083796;}.cls-8{fill:#bdd139;}.cls-9{fill:#ffa681;}.cls-10{fill:#f97853;}.cls-11{fill:#f3f9bb;}.cls-12{fill:#0056c5;}.cls-13{fill:#18315b;}.cls-14{fill:#ea5143;}.cls-15{fill:#fff;}.cls-16{fill:#7c8900;}.cls-17{fill:#9faf00;}.cls-18{fill:#1d567e;}.cls-19{fill:#000b29;}.cls-20{fill:#002b5c;}.cls-21{fill:#828c1c;}.cls-22{fill:#1b1b25;}.cls-23{fill:#58586b;}.cls-24{fill:#606072;}.cls-25{fill:#585868;}.cls-26{fill:#fbab7f;}.cls-27{fill:#434356;}.cls-28{fill:#747c23;}.cls-29{fill:#6b750b;}</style></defs><g id="OBJECTS"><path class="cls-1" d="M238.16,171.27c-17.11-62.08-94.23-82.08-138.43-35.68-.64.67-1.27,1.34-1.91,2C34.46,206.5,64.39,376.24,196.64,419.27S466.43,383.73,474.15,313.5s-53.28-92.3-148-72.66C272.7,251.93,248.82,209.92,238.16,171.27Z"/><path class="cls-2" d="M107.58,117.92l-3.08-1.22c0-.07.72-1.82,2.24-4.77l3,1.52C108.25,116.23,107.59,117.9,107.58,117.92Z"/><path class="cls-2" d="M112.42,108.5l-2.85-1.68c1.69-2.88,3.57-5.78,5.59-8.62l2.7,1.92C115.9,102.89,114.07,105.71,112.42,108.5Zm8.83-12.94-2.61-2c2.08-2.68,4.3-5.31,6.61-7.84l2.45,2.23C125.45,90.38,123.28,93,121.25,95.56ZM366.7,92.88c-2-2.5-4.28-5-6.65-7.45l2.38-2.31c2.44,2.51,4.74,5.09,6.84,7.67ZM131.61,83.8l-2.36-2.33c2.39-2.42,4.91-4.78,7.48-7l2.18,2.5C136.4,79.14,133.94,81.44,131.61,83.8ZM356,81.44c-2.39-2.27-4.93-4.48-7.52-6.59l2.08-2.57c2.67,2.16,5.26,4.43,7.72,6.75ZM143.27,73.32l-2.07-2.59c2.65-2.11,5.43-4.16,8.24-6.09l1.87,2.74C148.56,69.25,145.86,71.26,143.27,73.32Zm200.73-2c-2.65-2-5.42-3.89-8.23-5.69l1.79-2.79c2.87,1.84,5.71,3.8,8.42,5.83ZM156.06,64.27l-1.76-2.81c2.87-1.8,5.86-3.52,8.87-5.12l1.55,2.93C161.78,60.83,158.86,62.51,156.06,64.27Zm174.86-1.56c-2.85-1.67-5.82-3.27-8.8-4.76l1.47-3c3.06,1.52,6.09,3.16,9,4.87Zm-161.13-6-1.43-3c3-1.46,6.2-2.84,9.37-4.1L179,52.69C175.86,53.93,172.77,55.28,169.79,56.71ZM317,55.52c-3-1.36-6.13-2.64-9.26-3.81l1.16-3.1c3.2,1.19,6.38,2.5,9.46,3.89Zm-132.7-4.83-1.11-3.12c3.17-1.13,6.45-2.17,9.74-3.11l.91,3.19C190.59,48.57,187.38,49.59,184.28,50.69Zm118.08-.87c-3.14-1-6.37-2-9.6-2.86l.85-3.21c3.3.88,6.6,1.86,9.79,2.93Zm-103-3.63L198.52,43c3.26-.81,6.62-1.53,10-2.15l.6,3.26C205.81,44.7,202.51,45.4,199.31,46.19Zm87.92-.6c-3.21-.74-6.52-1.4-9.83-2l.55-3.26c3.38.57,6.75,1.24,10,2Zm-72.51-2.45-.5-3.27c3.32-.51,6.72-.93,10.13-1.26l.32,3.3C221.32,42.23,218,42.65,214.72,43.14Zm57-.37c-3.27-.45-6.62-.82-10-1.1l.28-3.3c3.4.28,6.82.66,10.15,1.12Zm-41.42-1.33-.22-3.31c3.33-.22,6.76-.37,10.19-.44l.06,3.31C237,41.07,233.63,41.22,230.35,41.44Zm25.77-.16c-3.29-.19-6.67-.29-10-.31l0-3.31c3.42,0,6.85.12,10.19.31Z"/><path class="cls-2" d="M372.91,101.51s-.9-1.56-2.74-4.11l2.69-1.93c1.95,2.7,2.88,4.32,2.92,4.39Z"/><path class="cls-2" d="M47.27,276.54a64,64,0,0,1-8.45-6.22L41,267.81a62.86,62.86,0,0,0,8,5.91ZM34.48,266.27a73.12,73.12,0,0,1-6.78-8l2.67-2a69.55,69.55,0,0,0,6.47,7.59ZM24.4,253.38a68.59,68.59,0,0,1-4.76-9.31l3.05-1.28a67.19,67.19,0,0,0,4.53,8.86ZM17.58,238.5a71.1,71.1,0,0,1-2.47-10.14l3.27-.55a70.45,70.45,0,0,0,2.35,9.68Zm-3.22-16c-.22-2.39-.33-4.86-.33-7.32,0-1,0-2.09.09-3.12l3.31.18c-.06,1-.08,2-.08,2.94,0,2.37.1,4.73.31,7ZM18,206.65l-3.27-.53A54.74,54.74,0,0,1,17.45,196l3.11,1.14A51.72,51.72,0,0,0,18,206.65Zm4.73-14.72-3-1.46a63.58,63.58,0,0,1,5.38-9l2.7,1.92A59.51,59.51,0,0,0,22.77,191.93Zm8.58-13-2.53-2.15a78.82,78.82,0,0,1,7.29-7.47l2.21,2.46A76.92,76.92,0,0,0,31.35,178.94Zm11.34-10.81-2-2.61a65.2,65.2,0,0,1,8.75-5.87L51,162.58A63.64,63.64,0,0,0,42.69,168.13ZM51,162.58l-.78-1.47.78,1.47Z"/><path class="cls-2" d="M450.83,268.76l-1.72-2.83a61.65,61.65,0,0,0,8-5.9l2.17,2.51A65.58,65.58,0,0,1,450.83,268.76Zm12.79-10.27-2.36-2.33a68.46,68.46,0,0,0,6.47-7.59l2.67,2A72,72,0,0,1,463.62,258.49Zm10.09-12.89-2.83-1.73a66,66,0,0,0,4.53-8.86l3.06,1.28A71.59,71.59,0,0,1,473.71,245.6Zm6.81-14.88-3.15-1a68,68,0,0,0,2.35-9.68l3.27.55A71.43,71.43,0,0,1,480.52,230.72Zm3.23-16-3.3-.29c.2-2.29.31-4.66.31-7,0-1,0-2-.08-2.94l3.3-.18c.06,1,.09,2.08.09,3.12C484.07,209.85,484,212.31,483.75,214.7Zm-3.68-15.83a52.53,52.53,0,0,0-2.52-9.55l3.11-1.15a56.79,56.79,0,0,1,2.68,10.16Zm-4.73-14.72a60.44,60.44,0,0,0-5.1-8.53l2.69-1.92a63.58,63.58,0,0,1,5.38,9Zm-8.58-13a74.64,74.64,0,0,0-7-7.16l2.21-2.46a78.82,78.82,0,0,1,7.29,7.47Zm-11.34-10.81a62.66,62.66,0,0,0-8.26-5.55l1.55-2.93a66.75,66.75,0,0,1,8.74,5.86Z"/><path class="cls-2" d="M216.23,92.64l1.2-6.12-5.73-1.13a14.43,14.43,0,0,0-.76-4.48l4.72-3.17-3.48-5.18-4.52,3A14,14,0,0,0,203,72.47l1.13-5.74L198,65.53l-1.16,5.91a13.78,13.78,0,0,0-3.73.73L190,67.44l-5.18,3.48,3,4.53a14,14,0,0,0-3.13,4.64l-5-1-1.2,6.12,5.19,1A13.78,13.78,0,0,0,184.77,91l-4.53,3,3.48,5.18L188.45,96A14.08,14.08,0,0,0,193,98.67l-1.13,5.77,6.12,1.2,1.23-6.26a13.56,13.56,0,0,0,4-1l3,4.52,5.18-3.48-3.17-4.72a14.05,14.05,0,0,0,2.08-3.18Zm-15.38-2.45a5.72,5.72,0,1,1,1.56-7.94A5.71,5.71,0,0,1,200.85,90.19Z"/><path class="cls-2" d="M46,150.44l1.2-6.13-5.74-1.12a14.19,14.19,0,0,0-.75-4.49l4.72-3.17-3.48-5.18-4.52,3a14,14,0,0,0-4.65-3.13l1.13-5.73-6.12-1.21-1.16,5.92a14.15,14.15,0,0,0-3.73.72l-3.18-4.73-5.18,3.49,3,4.52a14.06,14.06,0,0,0-3.12,4.64l-5-1L8.22,143l5.19,1a13.89,13.89,0,0,0,1.11,4.73l-4.53,3L13.47,157l4.73-3.18a14.08,14.08,0,0,0,4.56,2.65l-1.13,5.77,6.12,1.2L29,157.18a13.9,13.9,0,0,0,4-1.05l3,4.53,5.18-3.48L38,152.45a14.05,14.05,0,0,0,2.08-3.18ZM30.6,148a5.72,5.72,0,1,1,1.56-7.93A5.73,5.73,0,0,1,30.6,148Z"/><path class="cls-2" d="M240,62.7l.66-3.34-3.14-.62a7.68,7.68,0,0,0-.41-2.45l2.58-1.73-1.9-2.84-2.47,1.67a7.54,7.54,0,0,0-2.54-1.71l.61-3.14-3.34-.65-.64,3.23a7.92,7.92,0,0,0-2,.39l-1.74-2.58-2.83,1.9,1.66,2.47a7.8,7.8,0,0,0-1.71,2.54L220,55.3l-.65,3.35,2.83.56a7.59,7.59,0,0,0,.61,2.58l-2.48,1.66,1.91,2.83,2.58-1.73A7.82,7.82,0,0,0,227.32,66l-.62,3.15,3.35.66.67-3.42a7.28,7.28,0,0,0,2.17-.58l1.66,2.48,2.83-1.9-1.74-2.59a7.51,7.51,0,0,0,1.14-1.73Zm-8.4-1.34a3.13,3.13,0,1,1,.85-4.34A3.13,3.13,0,0,1,231.61,61.36Z"/><path class="cls-3" d="M401.4,90.75a7.29,7.29,0,1,1,7.28-7.29A7.3,7.3,0,0,1,401.4,90.75Zm0-12.29a5,5,0,1,0,5,5A5,5,0,0,0,401.4,78.46Z"/><path class="cls-3" d="M422.66,60.84A7.29,7.29,0,1,1,430,53.56,7.28,7.28,0,0,1,422.66,60.84Zm0-12.28a5,5,0,1,0,5,5A5,5,0,0,0,422.66,48.56Z"/><path class="cls-3" d="M431.66,84.52a1.14,1.14,0,0,1-1.14-1.14v-5a1.15,1.15,0,1,1,2.29,0v5A1.14,1.14,0,0,1,431.66,84.52Z"/><path class="cls-3" d="M431.66,93.34a1.14,1.14,0,0,1-1.14-1.14v-5a1.15,1.15,0,1,1,2.29,0v5A1.14,1.14,0,0,1,431.66,93.34Z"/><path class="cls-3" d="M438.74,86.41h-4.53a1.15,1.15,0,0,1,0-2.29h4.53a1.15,1.15,0,0,1,0,2.29Z"/><path class="cls-3" d="M429.12,86.41h-4.53a1.15,1.15,0,0,1,0-2.29h4.53a1.15,1.15,0,0,1,0,2.29Z"/><path class="cls-3" d="M393.18,54A1.14,1.14,0,0,1,392,52.84v-5a1.14,1.14,0,0,1,2.28,0v5A1.14,1.14,0,0,1,393.18,54Z"/><path class="cls-3" d="M393.18,62.81A1.14,1.14,0,0,1,392,61.66v-5a1.14,1.14,0,0,1,2.28,0v5A1.14,1.14,0,0,1,393.18,62.81Z"/><path class="cls-3" d="M400.25,55.88h-4.52a1.15,1.15,0,1,1,0-2.29h4.52a1.15,1.15,0,1,1,0,2.29Z"/><path class="cls-3" d="M390.63,55.88H386.1a1.15,1.15,0,0,1,0-2.29h4.53a1.15,1.15,0,1,1,0,2.29Z"/><path class="cls-3" d="M117.85,24.08a7.29,7.29,0,1,1,7.29,7.28A7.3,7.3,0,0,1,117.85,24.08Zm2.29,0a5,5,0,1,0,5-5A5,5,0,0,0,120.14,24.08Z"/><path class="cls-3" d="M102.4,49.82a7.29,7.29,0,1,1,7.29,7.29A7.29,7.29,0,0,1,102.4,49.82Zm2.29,0a5,5,0,1,0,5-5A5,5,0,0,0,104.69,49.82Z"/><path class="cls-3" d="M97.42,69.65a1.15,1.15,0,0,0,1.15-1.14v-5a1.15,1.15,0,0,0-2.29,0v5A1.14,1.14,0,0,0,97.42,69.65Z"/><path class="cls-3" d="M97.42,78.47a1.15,1.15,0,0,0,1.15-1.14v-5a1.15,1.15,0,0,0-2.29,0v5A1.14,1.14,0,0,0,97.42,78.47Z"/><path class="cls-3" d="M90.35,71.54h4.53a1.14,1.14,0,0,0,0-2.28H90.35a1.14,1.14,0,0,0,0,2.28Z"/><path class="cls-3" d="M100,71.54h4.53a1.14,1.14,0,0,0,0-2.28H100a1.14,1.14,0,0,0,0,2.28Z"/><path class="cls-3" d="M143.94,38.82a1.14,1.14,0,0,0,1.14-1.14v-5a1.14,1.14,0,1,0-2.28,0v5A1.14,1.14,0,0,0,143.94,38.82Z"/><path class="cls-3" d="M143.94,47.64a1.14,1.14,0,0,0,1.14-1.14v-5a1.14,1.14,0,1,0-2.28,0v5A1.14,1.14,0,0,0,143.94,47.64Z"/><path class="cls-3" d="M136.87,40.71h4.53a1.15,1.15,0,0,0,0-2.29h-4.53a1.15,1.15,0,1,0,0,2.29Z"/><path class="cls-3" d="M146.49,40.71H151a1.15,1.15,0,0,0,0-2.29h-4.53a1.15,1.15,0,0,0,0,2.29Z"/><path class="cls-4" d="M60.14,273.66l2,3L64,274.19,47.69,248.91a38.1,38.1,0,0,1,2-11.74c3-9.2,4.56-19.52-1.33-17.61-5.1,1.66-6.49,13.49-4,24.22L38.08,234a55.54,55.54,0,0,1-4.33-13.85c-1.95-13.22-6.24-25.38-11.85-20.65s2.16,25.5,14.52,37.34l3.24,5c-8.86-8.78-23.44-14.39-27.65-9.8s5.88,7.42,15.49,8.49c7.32.82,11.92,3,14.14,4.39L57,268.71C42.89,254.84,19.85,246,13.2,253.28s9.32,11.77,24.57,13.47C49.3,268,56.58,271.51,60.14,273.66Z"/><path class="cls-4" d="M433.89,198.39l-2,3-1.87-2.51,16.28-25.27a38.1,38.1,0,0,0-2-11.74c-3-9.2-4.56-19.53,1.32-17.61,5.11,1.66,6.5,13.49,4,24.21l6.3-9.77a55.68,55.68,0,0,0,4.33-13.85c2-13.22,6.24-25.38,11.84-20.66s-2.15,25.51-14.51,37.34l-3.24,5c8.85-8.79,23.44-14.39,27.64-9.8s-5.87,7.42-15.48,8.49a34.6,34.6,0,0,0-14.14,4.38l-15.31,23.77c14.06-13.87,37.09-22.7,43.75-15.43s-9.32,11.77-24.57,13.47C444.73,192.77,437.44,196.24,433.89,198.39Z"/><path class="cls-4" d="M88.64,164.21h12.07c-6.52-1.08-22.68-8-24.12-21.93-1.83-17.62-8.1-17.4-18.67-19.24s-13.49,1.17-20.2-12.51S16,95.12,16,95.12s13.65,14.9,11,26.22,6.44,15.83,13.69,17.26S46.27,149.76,49,156c1.26,2.85,6.4,5.81,11.63,8.19Z"/><path class="cls-4" d="M62.52,146.86c.52,5.28,3.56,11.55,8.11,16.79l.5.56H72.5c-.39-.42-.76-.82-1.11-1.22C67,158,64,151.76,63.52,146.76c-.8-8-7-13.39-20-17.59-7.55-2.44-9.93-11.66-10-11.75a.51.51,0,0,0-.61-.37.5.5,0,0,0-.37.61c.1.4,2.54,9.85,10.62,12.47C55.82,134.19,61.77,139.35,62.52,146.86Z"/><path class="cls-5" d="M82.44,164.21H107.8l0-.08a32.93,32.93,0,0,0,1.2-7.77c.3-8.87.45-31.16-5.28-36.87-7.21-7.17-21.67-10-19.76-20.8s.48-25.81-16.63-28.25S36.87,41.08,36.87,41.08s-5.63,21.71,9.77,38.36,9.66,19.07,6.55,34.74-6.77,24.25,16.72,36.22A26.16,26.16,0,0,1,82.44,164.21Z"/><path class="cls-5" d="M69.39,97.53c-1.13,20.31,3.11,31.76,13.74,37.12,6.67,3.38,13.69,10.9,18.3,19.63a55.72,55.72,0,0,1,4.1,9.93h1.56a57,57,0,0,0-4.33-10.63c-4.83-9.13-11.92-16.7-19-20.26-10-5.06-14-16.08-12.92-35.71C71.58,85,59.77,76.55,59.27,76.2a.75.75,0,0,0-.86,1.22C58.53,77.5,70,85.75,69.39,97.53Z"/><path class="cls-6" d="M84,411.42l12-1.35c-6.6-.34-23.43-5.42-26.43-19.08-3.79-17.31-10-16.38-20.71-17s-13.27,2.67-21.47-10.17S4.14,350.92,4.14,350.92s15.23,13.27,13.91,24.81,8.17,15,15.53,15.62,6.73,10.47,10.17,16.38c1.57,2.69,7,5.06,12.47,6.83Z"/><path class="cls-7" d="M56.13,397.12c1.12,5.18,4.84,11.08,9.95,15.77l.56.5,1.36-.16c-.43-.36-.85-.73-1.24-1.08-4.89-4.49-8.59-10.33-9.64-15.24-1.69-7.83-8.41-12.53-21.81-15.25-7.77-1.58-11.17-10.47-11.21-10.56a.49.49,0,0,0-.64-.29.5.5,0,0,0-.3.64c.15.39,3.63,9.51,12,11.2C48.06,385.27,54.55,389.74,56.13,397.12Z"/><path class="cls-5" d="M61.87,399.5H87.23l0-.08a32.94,32.94,0,0,0,1.21-7.77c.3-8.87.45-31.16-5.29-36.87-7.21-7.17-21.66-10-19.76-20.8s.48-25.81-16.63-28.25S16.3,276.37,16.3,276.37s-5.62,21.71,9.77,38.36,9.66,19.07,6.56,34.74-6.77,24.25,16.71,36.22A26.12,26.12,0,0,1,61.87,399.5Z"/><path class="cls-5" d="M48.82,332.82c-1.12,20.31,3.11,31.76,13.74,37.12,6.68,3.38,13.69,10.9,18.31,19.63A55,55,0,0,1,85,399.5h1.56a57,57,0,0,0-4.33-10.63c-4.82-9.13-11.91-16.7-18.95-20.26-10-5.06-14-16.08-12.92-35.71.7-12.62-11.11-21.06-11.62-21.41a.75.75,0,1,0-.86,1.22C38,312.79,49.48,321,48.82,332.82Z"/><path class="cls-4" d="M227.58,88c1.06,13.39,13.72,15.69,11.26,25.86s2.31,19.3,11.54,19.31,16-.49,17.88,10.54,13.61,18.86,20.41,11.92l5.32-5.44,1.46-1.49.33-.35a20.26,20.26,0,0,0,1.26-27c-2.68-3.21-6.22-5.46-10.85-5.11-14.5,1.1-6.65-11.58-13.54-19.12-7.93-8.69-17.58-2.84-22.78-9.91C242.64,77.3,226.53,74.58,227.58,88Z"/><path class="cls-4" d="M242.7,96.9,294,150.16l1.46-1.49L244.21,95.45a1,1,0,0,0-1.51,1.45Z"/><path class="cls-5" d="M257.3,29.59C252,43.87,264,52.23,256.63,61.53s-6.77,21,2.72,25.35S276.08,94,272.76,106.2s5.07,25.86,15.36,21.94c2.56-1,5.33-2,8-3.08l2.21-.84.51-.2A23,23,0,0,0,313,96.79c-1.23-4.58-3.81-8.56-8.74-10.4-15.45-5.75-1.36-15.07-4.87-26.1-4-12.71-16.75-11.26-18.75-21C277.85,25.74,262.57,15.3,257.3,29.59Z"/><path class="cls-5" d="M268.63,45.94l27.53,79.12,2.21-.84L270.86,45.16a1.18,1.18,0,1,0-2.23.78Z"/><path class="cls-4" d="M495.3,326.71c-1.05,13.39-13.71,15.69-11.26,25.86s-2.31,19.3-11.54,19.31-16-.49-17.88,10.54S441,401.28,434.21,394.34l-5.32-5.44-1.45-1.49-.34-.35a20.26,20.26,0,0,1-1.25-27c2.67-3.21,6.21-5.46,10.84-5.11,14.51,1.1,6.65-11.57,13.54-19.12,7.93-8.69,17.59-2.84,22.78-9.91C480.24,316,496.35,313.32,495.3,326.71Z"/><path class="cls-4" d="M480.18,335.64,428.89,388.9l-1.45-1.49,51.24-53.22a1,1,0,0,1,1.47,0A1,1,0,0,1,480.18,335.64Z"/><path class="cls-5" d="M471.64,272.67c5.26,14.28-6.68,22.64.67,31.94s6.77,21-2.73,25.35-16.72,7.09-13.4,19.32-5.07,25.86-15.36,21.94l-8.05-3.08-2.2-.84-.51-.2A23,23,0,0,1,416,339.87c1.23-4.58,3.81-8.56,8.74-10.4,15.45-5.75,1.36-15.07,4.87-26.1,4-12.7,16.75-11.25,18.75-21C451.09,268.82,466.37,258.38,471.64,272.67Z"/><path class="cls-5" d="M460.31,289l-27.54,79.12-2.2-.84,27.51-79.06a1.18,1.18,0,1,1,2.23.78Z"/><path class="cls-4" d="M335,322.77l2,3,1.88-2.51L322.51,298a38.1,38.1,0,0,1,2-11.74c3-9.2,4.56-19.53-1.33-17.61-5.1,1.66-6.49,13.49-4,24.21l-6.3-9.77a55.68,55.68,0,0,1-4.33-13.85c-1.95-13.22-6.24-25.38-11.85-20.66s2.16,25.51,14.52,37.35l3.24,5c-8.86-8.79-23.44-14.39-27.65-9.8s5.88,7.42,15.49,8.49a34.6,34.6,0,0,1,14.14,4.38l15.31,23.77c-14.06-13.87-37.1-22.7-43.75-15.43s9.32,11.77,24.57,13.47C324.12,317.15,331.4,320.62,335,322.77Z"/><path class="cls-8" d="M289.07,423.46c-.05-4.55-.12-9.27-.2-14.06-.05-3.06-.11-6.15-.17-9.24s-.13-6.26-.2-9.38l-.06-2c-.71-29.46-2-56.54-4-59.56-1.42-2.09-4.68-4.55-8.52-7l-1.44-.91c-1.63-1-15-5.56-16.68-6.55l-14.1-1c-.09,0-13.58,4.6-13.67,4.65l-1.74,1c-5,2.88-9.93,5.92-12.77,8.53a14.36,14.36,0,0,0-1.1,1.12,8.07,8.07,0,0,0-.66.84,4.92,4.92,0,0,0-.49,1.24c-1.71,6.2-2.6,30.58-3,57.1,0,1.9-.06,3.81-.08,5.73,0,.84,0,1.68,0,2.52,0,.58,0,1.17,0,1.75v.87c0,1.44,0,2.88-.05,4.31,0,1.06,0,2.12,0,3.18-.05,5.76-.09,11.44-.11,16.9Z"/><path class="cls-9" d="M202.5,423.46c2.21-9.5,4.32-19,4.35-23.44l1.23-4.16,4.5-15.21,7-23.83s-4.22-18-11.35-16.49c0,0-3.77,12.57-7.79,26.73-.69,2.41-1.38,4.86-2.06,7.31-2.87,10.27-5.57,20.41-6.82,26.43a179,179,0,0,0-2.6,22.66Z"/><path class="cls-10" d="M198.43,374.37l9.65,21.49,4.5-15.21-12.09-13.59C199.8,369.47,199.11,371.92,198.43,374.37Z"/><path class="cls-8" d="M198,368c4.23,7.26,8.54,14.47,12.82,21.7,1.41-4.73,2.88-9.26,4.25-13.44v0q.83-2.51,1.6-4.81a.19.19,0,0,1,0-.08l.53-1.59h0c2-6.18,3.63-11.1,4.09-14,1.22-7.71-2.11-22.83-6.8-25.81h0c-.13.27-.5-.57-.72-.06-.82,1.91-4.48,6.61-6.29,11.19l-.71,1.81C204.12,349.6,200.92,358.37,198,368Z"/><path class="cls-9" d="M295.94,423.46c-2.21-9.5-4.32-19-4.34-23.44l-1.23-4.16-4.51-15.21-7.05-23.83s4.23-18,11.35-16.49c0,0,3.77,12.57,7.8,26.73.68,2.41,1.37,4.86,2.05,7.31,2.87,10.27,5.57,20.41,6.82,26.43a179,179,0,0,1,2.6,22.66Z"/><path class="cls-10" d="M300,374.37l-9.64,21.49-4.51-15.21L298,367.06C298.64,369.47,299.33,371.92,300,374.37Z"/><path class="cls-8" d="M300.49,368c-4.23,7.26-8.53,14.47-12.82,21.7-1.41-4.73-2.88-9.26-4.25-13.44v0q-.82-2.51-1.6-4.81a.19.19,0,0,0,0-.08c-.18-.54-.35-1.07-.53-1.59h0c-2.05-6.18-3.63-11.1-4.09-14C276,348,279.28,332.9,284,329.92h0c.13.27.5-.57.72-.06.82,1.91,4.48,6.61,6.29,11.19l.71,1.81C294.32,349.6,297.52,358.37,300.49,368Z"/><path class="cls-11" d="M250.12,327.83c6.11,0,10.41-5.58,10.59-5.81a.83.83,0,0,0-.1-1.11.7.7,0,0,0-1,.11c-.06.08-4.07,5.23-9.45,5.23s-8.57-5.83-8.6-5.89a.71.71,0,0,0-1-.29.83.83,0,0,0-.27,1.08C240.39,321.42,243.93,327.83,250.12,327.83Z"/><path class="cls-11" d="M276,381.24a.68.68,0,0,0,.33-.09.81.81,0,0,0,.33-1.07L274,374.45a.73.73,0,0,0-1-.35.82.82,0,0,0-.33,1.07l2.66,5.63A.75.75,0,0,0,276,381.24Z"/><path class="cls-11" d="M281.5,376.63a.76.76,0,0,0,.33.11.75.75,0,0,0,.8-.72l.53-6.29a.79.79,0,0,0-.68-.86.77.77,0,0,0-.81.72l-.52,6.29A.84.84,0,0,0,281.5,376.63Z"/><path class="cls-11" d="M267.19,366.88a.77.77,0,0,0,.73-.67l1-6.22a.8.8,0,0,0-.61-.92.76.76,0,0,0-.86.66l-1,6.22a.8.8,0,0,0,.61.92Z"/><path class="cls-11" d="M243.25,369.2a.76.76,0,0,0,.38-.11.83.83,0,0,0,.26-1.09l-3-5.43a.7.7,0,0,0-1-.28.83.83,0,0,0-.27,1.09l3,5.43A.74.74,0,0,0,243.25,369.2Z"/><path class="cls-11" d="M272.66,344.86a.7.7,0,0,0,.4-.13L278,341.3a.82.82,0,0,0,.22-1.1.71.71,0,0,0-1-.23l-5,3.43a.84.84,0,0,0-.22,1.1A.74.74,0,0,0,272.66,344.86Z"/><path class="cls-11" d="M250.58,395.45a.69.69,0,0,0,.34-.09.83.83,0,0,0,.33-1.07l-2.67-5.63a.72.72,0,0,0-1-.35.82.82,0,0,0-.32,1.07l2.66,5.63A.73.73,0,0,0,250.58,395.45Z"/><path class="cls-11" d="M262.29,349.09a.73.73,0,0,0,.63-.37.83.83,0,0,0-.23-1.09l-5-3.35a.72.72,0,0,0-1,.25.83.83,0,0,0,.24,1.1l5,3.34A.64.64,0,0,0,262.29,349.09Z"/><path class="cls-11" d="M274.19,325.68a.68.68,0,0,0,.08.43.74.74,0,0,0,.6.42.77.77,0,0,0,.8-.74l.23-3.62-1.43-.91Z"/><path class="cls-11" d="M280.85,360.23a.73.73,0,0,0,.63-.37.83.83,0,0,0-.23-1.1l-5-3.35a.73.73,0,0,0-1,.25.83.83,0,0,0,.24,1.1l5,3.35A.71.71,0,0,0,280.85,360.23Z"/><path class="cls-11" d="M241,332.75a.71.71,0,0,0,.41-.13.82.82,0,0,0,.21-1.1l-2.85-4.63a.71.71,0,0,0-1-.22.82.82,0,0,0-.21,1.1l2.85,4.63A.72.72,0,0,0,241,332.75Z"/><path class="cls-11" d="M238.41,412.71a.73.73,0,0,0,.54-.24l4.09-4.56a.83.83,0,0,0,0-1.12.72.72,0,0,0-1,0l-4.08,4.56a.82.82,0,0,0,0,1.12A.7.7,0,0,0,238.41,412.71Z"/><path class="cls-11" d="M253.43,411.76a.75.75,0,0,0,.54-.24l4.08-4.55a.83.83,0,0,0,0-1.13.71.71,0,0,0-1,0l-4.09,4.55a.84.84,0,0,0,0,1.12A.72.72,0,0,0,253.43,411.76Z"/><path class="cls-11" d="M269.58,407.89a.71.71,0,0,0,.37-.1.82.82,0,0,0,.27-1.09l-3-5.46a.72.72,0,0,0-1-.29A.82.82,0,0,0,266,402l2.95,5.46A.75.75,0,0,0,269.58,407.89Z"/><path class="cls-11" d="M260.9,394.24a.72.72,0,0,0,.66-.43l2.71-5.61a.83.83,0,0,0-.32-1.07.73.73,0,0,0-1,.34l-2.7,5.61a.81.81,0,0,0,.32,1.07A.69.69,0,0,0,260.9,394.24Z"/><path class="cls-11" d="M284.41,393.42a.67.67,0,0,0,.28.22.7.7,0,0,0,.76-.13l3-2.73c0-.68,0-1.35,0-2l-4,3.55A.83.83,0,0,0,284.41,393.42Z"/><path class="cls-11" d="M260.94,334.74a.72.72,0,0,0,.66-.43l2.7-5.6a.81.81,0,0,0-.32-1.07.71.71,0,0,0-1,.34l-2.7,5.61a.81.81,0,0,0,.32,1.07A.68.68,0,0,0,260.94,334.74Z"/><path class="cls-11" d="M243.6,355.29h.14a.8.8,0,0,0,.59-.94l-1.12-6.19a.75.75,0,0,0-.87-.63.79.79,0,0,0-.59.93l1.12,6.2A.76.76,0,0,0,243.6,355.29Z"/><path class="cls-11" d="M253.25,360.73h.14a.79.79,0,0,0,.59-.93l-1.11-6.2A.76.76,0,0,0,252,353a.79.79,0,0,0-.58.93l1.11,6.2A.76.76,0,0,0,253.25,360.73Z"/><path class="cls-11" d="M246.34,340.29a.75.75,0,0,0,.63-.37l3.16-5.33a.83.83,0,0,0-.23-1.1.73.73,0,0,0-1,.25l-3.16,5.33a.82.82,0,0,0,.23,1.09A.66.66,0,0,0,246.34,340.29Z"/><path class="cls-11" d="M275.34,395.23a.82.82,0,0,0,.13-.89l-2.54-5.69a.72.72,0,0,0-1-.38.82.82,0,0,0-.35,1.06l2.54,5.7a.72.72,0,0,0,1,.37A.62.62,0,0,0,275.34,395.23Z"/><path class="cls-11" d="M256.22,378.7a.75.75,0,0,0,.69-.5l2.15-5.88a.81.81,0,0,0-.42-1,.73.73,0,0,0-1,.45l-2.15,5.88a.81.81,0,0,0,.42,1A.69.69,0,0,0,256.22,378.7Z"/><path class="cls-11" d="M232.59,415a.72.72,0,0,0,.34-.09.81.81,0,0,0,.32-1.06l-2.66-5.64a.73.73,0,0,0-1-.35.83.83,0,0,0-.33,1.07l2.67,5.63A.73.73,0,0,0,232.59,415Z"/><path class="cls-11" d="M222.92,400.64a.75.75,0,0,0,.73-.66l1-6.23a.79.79,0,0,0-.62-.91.74.74,0,0,0-.85.65l-1,6.23a.78.78,0,0,0,.61.91Z"/><path class="cls-11" d="M222.31,354.7a.67.67,0,0,0,.38-.11.83.83,0,0,0,.26-1.09l-3-5.43a.72.72,0,0,0-1-.28.83.83,0,0,0-.26,1.09l3,5.43A.73.73,0,0,0,222.31,354.7Z"/><path class="cls-11" d="M232,376.77a.78.78,0,0,0,.41-.12l5-3.43a.84.84,0,0,0,.22-1.1.72.72,0,0,0-1-.24l-5,3.43a.82.82,0,0,0-.22,1.1A.73.73,0,0,0,232,376.77Z"/><path class="cls-11" d="M284.43,413.79a.66.66,0,0,0,.33-.09.8.8,0,0,0,.33-1.06L282.43,407a.73.73,0,0,0-1-.35.83.83,0,0,0-.33,1.07l2.67,5.63A.73.73,0,0,0,284.43,413.79Z"/><path class="cls-11" d="M223.53,385.33a.74.74,0,0,0,.63-.38.83.83,0,0,0-.23-1.09l-5-3.35a.72.72,0,0,0-1,.25.83.83,0,0,0,.24,1.1l5,3.34A.65.65,0,0,0,223.53,385.33Z"/><path class="cls-11" d="M235.52,393.29a.69.69,0,0,0,.7.18.79.79,0,0,0,.52-1l-1.55-6.09a.73.73,0,0,0-.91-.56.81.81,0,0,0-.52,1l1.55,6.09A.85.85,0,0,0,235.52,393.29Z"/><path class="cls-11" d="M214.41,329l1.3,2.1a.75.75,0,0,0,.62.35.71.71,0,0,0,.41-.13.84.84,0,0,0,.21-1.1l-1.44-2.33A14.3,14.3,0,0,0,214.41,329Z"/><path class="cls-11" d="M208.76,342.86l1.37,2.23a.73.73,0,0,0,.63.36.66.66,0,0,0,.4-.13.83.83,0,0,0,.22-1.1l-2-3.17C209.21,341.64,209,342.24,208.76,342.86Z"/><path class="cls-11" d="M264.53,423.46l3.93-4.38a.84.84,0,0,0,0-1.12.7.7,0,0,0-1.05,0l-4.09,4.55a.82.82,0,0,0-.11.93Z"/><path class="cls-11" d="M245.56,423.46h2.31l-2.47-2.22a.71.71,0,0,0-1.05.09.8.8,0,0,0-.17.57.78.78,0,0,0,.26.55Z"/><path class="cls-11" d="M220.19,423.46l.72-1.49a.84.84,0,0,0-.32-1.08.73.73,0,0,0-1,.35l-1.07,2.22Z"/><path class="cls-11" d="M225.61,364.33a.74.74,0,0,0,.66-.43l2.71-5.61a.82.82,0,0,0-.32-1.07.72.72,0,0,0-1,.34L225,363.17a.82.82,0,0,0,.32,1.07A.72.72,0,0,0,225.61,364.33Z"/><path class="cls-11" d="M222.66,340.8l.14,0a.79.79,0,0,0,.59-.93l-1.12-6.2a.75.75,0,0,0-.87-.63.8.8,0,0,0-.59.94l1.12,6.19A.77.77,0,0,0,222.66,340.8Z"/><path class="cls-11" d="M209.07,362.18l.14,0a.78.78,0,0,0,.59-.93l-1.12-6.2a.75.75,0,0,0-.87-.63.81.81,0,0,0-.59.94l1.12,6.19A.77.77,0,0,0,209.07,362.18Z"/><path class="cls-11" d="M232.31,346.24l.14,0a.78.78,0,0,0,.59-.93l-1.12-6.2a.75.75,0,0,0-.87-.63.81.81,0,0,0-.59.94l1.12,6.19A.77.77,0,0,0,232.31,346.24Z"/><path class="cls-11" d="M227.88,324.65a.64.64,0,0,0,.41,0,.78.78,0,0,0,.48-.57l1.25-5.69-1.74,1-.95,4.33A.79.79,0,0,0,227.88,324.65Z"/><path class="cls-11" d="M210.87,371.76a.73.73,0,0,0,.63-.37l3.16-5.33a.83.83,0,0,0-.23-1.1.71.71,0,0,0-1,.25l-3.17,5.32a.84.84,0,0,0,.23,1.1A.68.68,0,0,0,210.87,371.76Z"/><path class="cls-11" d="M228.4,423.46H230l-.47-1a.72.72,0,0,0-1-.38.82.82,0,0,0-.35,1.06Z"/><path class="cls-11" d="M212.86,412.47a.74.74,0,0,0,.69-.51l2.15-5.88a.81.81,0,0,0-.42-1,.73.73,0,0,0-1,.45l-2.15,5.88a.81.81,0,0,0,.42,1A.66.66,0,0,0,212.86,412.47Z"/><path class="cls-12" d="M210.13,393.93c1.39-5.77,3.15-12.18,4.89-17.71v0c.53-1.71,1.07-3.33,1.6-4.81a.19.19,0,0,1,0-.08c.16-.47.33-.92.49-1.37a.6.6,0,0,0,0-.22h0a.65.65,0,0,0-1.27-.22c-1.78,4.86-3.89,11.86-5.7,18.72C210.18,390.1,210.15,392,210.13,393.93Z"/><path class="cls-13" d="M230.7,281.09s-5.38-5.92-3.35-12.81,7.58-6.82,7.58-6.82,3.23-7.32,8.75-7.57,10.71-10,15.72-7.37-.54,8.46-.54,8.46,8.59-9.06,11.43-6.4-3.94,9.79-3.94,9.79,7.22-5.08,9.6-3.15-5.66,10.28-5.66,10.28,5.19,9.36,0,13.56Z"/><path class="cls-10" d="M268.24,283.07s3.44-4.58,6-.79-1.06,15-7.31,12.25Z"/><path class="cls-14" d="M268.28,291.07a.53.53,0,0,0,.51-.39c1-3.45,4.55-4.85,4.59-4.87a.52.52,0,0,0,.3-.68.53.53,0,0,0-.68-.31,9.14,9.14,0,0,0-5.22,5.58.52.52,0,0,0,.36.65Z"/><path class="cls-14" d="M271.9,289.33a.49.49,0,0,0,.28-.09.52.52,0,0,0,.16-.73,4.94,4.94,0,0,0-2-1.6.53.53,0,0,0-.43,1,3.87,3.87,0,0,1,1.52,1.2A.53.53,0,0,0,271.9,289.33Z"/><path class="cls-10" d="M232.83,283.07s-3.44-4.58-6-.79,1.06,15,7.31,12.25Z"/><path class="cls-14" d="M232.79,291.07a.53.53,0,0,1-.51-.39c-1-3.45-4.55-4.85-4.59-4.87a.52.52,0,0,1-.3-.68.53.53,0,0,1,.68-.31,9.14,9.14,0,0,1,5.22,5.58.52.52,0,0,1-.36.65Z"/><path class="cls-14" d="M229.17,289.33a.49.49,0,0,1-.28-.09.52.52,0,0,1-.16-.73,4.94,4.94,0,0,1,2-1.6.53.53,0,1,1,.43,1,3.87,3.87,0,0,0-1.52,1.2A.53.53,0,0,1,229.17,289.33Z"/><path class="cls-9" d="M242.08,304v11.12s3.32,5.67,7.8,6.06,8.47-4.88,8.47-4.88V304.8Z"/><path class="cls-10" d="M242.08,304V309c3,3.34,8.36,4.18,16.27,3V304.8Z"/><path class="cls-9" d="M230.35,275.44a106.21,106.21,0,0,0,1.44,14.05v0a.08.08,0,0,0,0,0h0c.2,1.05.43,2,.68,2.94.15.52.31,1.07.5,1.63,2.63,8.27,8.75,20.25,24.1,14.77,6.47-2.3,9.84-9,11.55-16.23.1-.43.2-.86.28-1.27s.12-.54.17-.8l.07-.39a1.15,1.15,0,0,0,0-.14v0a79.26,79.26,0,0,0,1.09-15.23,11.63,11.63,0,0,0-5.89-9.89c-9.68-5.48-19.89-3.43-26.62-.85A11.56,11.56,0,0,0,230.35,275.44Z"/><path class="cls-13" d="M231.78,289.49v0a.08.08,0,0,0,0,0h0c.1.36.64,2.34,1.18,4.57,2.63,8.27,8.75,20.25,24.1,14.77,6.47-2.3,9.84-9,11.55-16.23.1-.43.2-.86.28-1.27s.12-.54.17-.8l.07-.39a1.15,1.15,0,0,0,0-.14v0l-2.26-.46a17.2,17.2,0,0,1-2.56,5.94C262.45,291,252.75,294,252.75,294h0a5.9,5.9,0,0,1-1.81.28A6.23,6.23,0,0,1,249,294s-9.57-3.18-11.56,1.19a60.64,60.64,0,0,1-3.33-5.86l-2.36.16Zm19.1,6.58c11-1.48,9.23,4.42,9.23,4.42a18.43,18.43,0,0,1-3.07,2.34,12.63,12.63,0,0,1-6.46,1.76c-1.68-.07-2.14.27-6.4-2a10.55,10.55,0,0,1-2.25-1.71h0C241.74,299.69,239.88,294.18,250.88,296.07Z"/><path class="cls-13" d="M240.94,283.49c0,1.18.61,2.15,1.37,2.15s1.37-1,1.37-2.15-.61-2.15-1.37-2.15S240.94,282.3,240.94,283.49Z"/><path class="cls-13" d="M258,283.49c0,1.18.61,2.15,1.36,2.15s1.37-1,1.37-2.15-.61-2.15-1.37-2.15S258,282.3,258,283.49Z"/><path class="cls-13" d="M237.44,276.23s5.65-2.23,10-.35L247,278.3s-6.39-.54-9.6.76A4.17,4.17,0,0,1,237.44,276.23Z"/><path class="cls-13" d="M264.31,276.25s-5.69-2.25-10.08-.36l.44,2.44s6.43-.55,9.67.77A4.23,4.23,0,0,0,264.31,276.25Z"/><path class="cls-10" d="M250.35,293.1a5.82,5.82,0,0,1-1.91-.4.53.53,0,0,1,.4-1,3.18,3.18,0,0,0,2.12.2.61.61,0,0,0,.26-.49c.19-1.85-.32-8-.32-8.1a.52.52,0,0,1,.48-.57.53.53,0,0,1,.57.48,78.82,78.82,0,0,1,.32,8.29,1.6,1.6,0,0,1-.77,1.29A2.16,2.16,0,0,1,250.35,293.1Z"/><path class="cls-15" d="M257.09,297.13c-.4,2-1.73,5.73-6.23,5.73s-5.77-3.4-6.2-5.73Z"/><path class="cls-13" d="M230.35,275.44a106.21,106.21,0,0,0,1.44,14.05l2.36-.16s-.57-3.65-.84-6-.71-6.83,1.32-7.38.84-5.63,3.66-7.82,9.12-2.81,13.27-.25,8.84-.2,10.75.25,4.52,3.08,3.82,5.55,1.4,4,1.92,6.51-1.13,9.43-1.13,9.43l2.26.45a79.16,79.16,0,0,0,1.09-15.22,11.63,11.63,0,0,0-5.89-9.89c-9.68-5.48-19.89-3.44-26.62-.85A11.56,11.56,0,0,0,230.35,275.44Z"/><path class="cls-16" d="M54,423.46H451.1a7.65,7.65,0,0,1,7.65,7.65v.73a7.66,7.66,0,0,1-7.66,7.66H53.95a7.66,7.66,0,0,1-7.66-7.66v-.73A7.66,7.66,0,0,1,54,423.46Z"/><path class="cls-17" d="M458.76,431.11v.37H46.29v-.37A7.66,7.66,0,0,1,54,423.46H451.1A7.66,7.66,0,0,1,458.76,431.11Z"/><rect class="cls-18" x="183.14" y="323.54" width="135.56" height="76.07" rx="7.47"/><rect class="cls-13" x="183.14" y="327.65" width="135.56" height="71.96" rx="7.47"/><rect class="cls-19" x="240.43" y="399.53" width="20.99" height="23.93"/><circle class="cls-18" cx="250.69" cy="362.51" r="10.42"/><path class="cls-13" d="M230.16,415H271a6.65,6.65,0,0,1,6.65,6.65v1.84a0,0,0,0,1,0,0H223.51a0,0,0,0,1,0,0v-1.84A6.65,6.65,0,0,1,230.16,415Z"/><rect class="cls-18" x="76.91" y="95.01" width="115.71" height="156.94" rx="5.23" transform="translate(308.25 38.72) rotate(90)"/><path class="cls-15" d="M206,127.49v92a4.6,4.6,0,0,1-4.6,4.61H68.15a4.6,4.6,0,0,1-4.6-4.61v-92a4.62,4.62,0,0,1,4-4.57,5.68,5.68,0,0,1,.59,0H201.38a5.88,5.88,0,0,1,.6,0A4.61,4.61,0,0,1,206,127.49Z"/><path class="cls-2" d="M104.27,152.47H72.54a2.63,2.63,0,0,1-2.63-2.63h0a2.63,2.63,0,0,1,2.63-2.63h31.73a2.63,2.63,0,0,1,2.63,2.63h0A2.63,2.63,0,0,1,104.27,152.47Z"/><path class="cls-2" d="M104.27,163.34H72.54a2.63,2.63,0,0,1-2.63-2.63h0a2.63,2.63,0,0,1,2.63-2.63h31.73a2.63,2.63,0,0,1,2.63,2.63h0A2.63,2.63,0,0,1,104.27,163.34Z"/><path class="cls-2" d="M104.27,174.21H72.54a2.63,2.63,0,0,1-2.63-2.63h0A2.63,2.63,0,0,1,72.54,169h31.73a2.63,2.63,0,0,1,2.63,2.63h0A2.63,2.63,0,0,1,104.27,174.21Z"/><path class="cls-2" d="M104.27,185.08H72.54a2.63,2.63,0,0,1-2.63-2.63h0a2.63,2.63,0,0,1,2.63-2.63h31.73a2.63,2.63,0,0,1,2.63,2.63h0A2.63,2.63,0,0,1,104.27,185.08Z"/><path class="cls-2" d="M197.41,179.39H165.69a2.63,2.63,0,0,1-2.63-2.63h0a2.63,2.63,0,0,1,2.63-2.63h31.72a2.63,2.63,0,0,1,2.63,2.63h0A2.63,2.63,0,0,1,197.41,179.39Z"/><path class="cls-2" d="M197.41,190.26H165.69a2.63,2.63,0,0,1-2.63-2.63h0a2.63,2.63,0,0,1,2.63-2.63h31.72a2.63,2.63,0,0,1,2.63,2.63h0A2.63,2.63,0,0,1,197.41,190.26Z"/><path class="cls-2" d="M197.41,201.13H165.69a2.63,2.63,0,0,1-2.63-2.63h0a2.63,2.63,0,0,1,2.63-2.63h31.72A2.63,2.63,0,0,1,200,198.5h0A2.63,2.63,0,0,1,197.41,201.13Z"/><rect class="cls-2" x="163.06" y="206.74" width="36.99" height="5.26" rx="2.63"/><path class="cls-2" d="M206,127.49v10.89H63.55v-11a4.55,4.55,0,0,1,.18-1.28,4.65,4.65,0,0,1,2.91-3.14H202A4.61,4.61,0,0,1,206,127.49Z"/><path class="cls-15" d="M178.14,129.15H95.05A2.07,2.07,0,0,0,93,130.86a2,2,0,0,0,2,2.33h83.16a2,2,0,0,0,2-2h0A2,2,0,0,0,178.14,129.15Z"/><path class="cls-20" d="M76.17,131.17v1.5a.56.56,0,0,1-.84.48L74,132.4l-1.3-.75a.55.55,0,0,1,0-1l1.3-.75,1.29-.75a.56.56,0,0,1,.84.48Z"/><path class="cls-20" d="M82.92,131.17v1.5a.55.55,0,0,0,.83.48l1.3-.75,1.29-.75a.55.55,0,0,0,0-1l-1.29-.75-1.3-.75a.55.55,0,0,0-.83.48Z"/><path class="cls-8" d="M88.67,224.09c4.64-20.66,13.17-41.32,14.31-48.52,1.18-7.46-.44-23.37-5-26.26-3.19,1.7-5.44,6-6.79,9.4-3.66,9.12-10.95,26.42-15.61,46.42-1.48,6.37-2.75,12.13-3.83,19Z"/><path class="cls-8" d="M169.32,224.09c0-1.86-.07-3.71-.1-5.57-.65-32.41-1.89-65.31-4.12-68.61-2.13-3.12-8.48-7.09-14.6-10.67l-2.28-1.33-.54-.32-2-1.16c-2.93-1.7-5.48-3.22-7-4.37V133s-3.32,4.72-7.06,4.37c-3.41-.32-5.28-4.54-5.72-5.3a65.64,65.64,0,0,1-6.52,4l-2,1.13-.67.37-.51.28c-7.6,4.17-16.74,9.19-19.2,12.81C95,153.42,94,178.37,93.55,206c0,2.26-.07,4.54-.11,6.83,0,1.28,0,2.55,0,3.83,0,2.49,0,5-.08,7.47Z"/><path class="cls-8" d="M107.8,152.47s-13-15.22-4-26,30.68-9.81,37.79-8.7,27.92,13.48,13,31S107.8,152.47,107.8,152.47Z"/><path class="cls-21" d="M110.44,210.79a51.55,51.55,0,0,0,25,10.4.68.68,0,0,0,.77-.69v0a.66.66,0,0,0-.59-.65,50.3,50.3,0,0,1-24.39-10.14.68.68,0,0,0-1.09.53v0A.68.68,0,0,0,110.44,210.79Z"/><path class="cls-21" d="M113.26,202v0a.56.56,0,0,0,.09.31c.35.61.75,1.25,1.21,1.91a27.43,27.43,0,0,0,15.7,10.63l.16,0a.63.63,0,0,0,.17-1.23,25.82,25.82,0,0,1-16.15-12A.63.63,0,0,0,113.26,202Z"/><path class="cls-21" d="M140.47,148.84a46.76,46.76,0,0,1-13.88,9.44.64.64,0,0,0-.39.58h0a.64.64,0,0,0,.89.59,46.46,46.46,0,0,0,8.79-5,48.63,48.63,0,0,0,5.49-4.67.64.64,0,0,0,.19-.45h0A.64.64,0,0,0,140.47,148.84Z"/><path class="cls-15" d="M122.29,207.16a.55.55,0,0,1-.55-.54c-.59-26.5,0-53.34,0-53.61a.55.55,0,0,1,.55-.54h0a.55.55,0,0,1,.54.56c0,.27-.59,27.09,0,53.57a.55.55,0,0,1-.54.56Z"/><path class="cls-15" d="M143.13,207.16h0a.55.55,0,0,1-.54-.56c.58-26.48,0-53.3,0-53.57a.55.55,0,0,1,.54-.56h0a.55.55,0,0,1,.55.54c0,.27.59,27.11,0,53.61A.55.55,0,0,1,143.13,207.16Z"/><path class="cls-13" d="M151.64,99.29c0,11.62-7.16,19.63-18.78,19.63s-19.72-8.61-19.72-20.23,6.88-20.42,18.5-20.42C145.58,78.27,151.64,87.67,151.64,99.29Z"/><path class="cls-13" d="M114.66,106.93a9,9,0,0,1-5.76-6.22c-1.47-5.07,1.94-2.5,2.53-6.9s-4.35-7.69,0-9.82,1.73-6.71,5.57-9.1,9.44,2,13.11-1.65,11.1-2.76,13.22,0,3,2.09,7,2.82,5.78,7.16,3.85,10.13-.58,5,1.26,6.79.56,14.44-5.77,12.68S114.66,106.93,114.66,106.93Z"/><path class="cls-10" d="M149,104.3s3.22-4.31,5.63-.75-1,14.08-6.88,11.51Z"/><path class="cls-14" d="M149.07,111.81a.51.51,0,0,0,.48-.36,7.71,7.71,0,0,1,4.3-4.58.49.49,0,0,0,.29-.64.51.51,0,0,0-.64-.29,8.56,8.56,0,0,0-4.91,5.24.49.49,0,0,0,.34.61Z"/><path class="cls-14" d="M152.46,110.18a.53.53,0,0,0,.27-.08.5.5,0,0,0,.15-.69,4.51,4.51,0,0,0-1.87-1.5.49.49,0,0,0-.65.25.49.49,0,0,0,.25.65A3.49,3.49,0,0,1,152,110,.51.51,0,0,0,152.46,110.18Z"/><path class="cls-10" d="M115.75,104.3s-3.23-4.31-5.63-.75,1,14.08,6.88,11.51Z"/><path class="cls-14" d="M115.71,111.81a.5.5,0,0,1-.48-.36,7.71,7.71,0,0,0-4.3-4.58.49.49,0,0,1-.29-.64.51.51,0,0,1,.64-.29,8.58,8.58,0,0,1,4.91,5.24.5.5,0,0,1-.34.61Z"/><path class="cls-14" d="M112.32,110.18a.5.5,0,0,1-.42-.77,4.43,4.43,0,0,1,1.86-1.5.49.49,0,1,1,.41.9,3.49,3.49,0,0,0-1.43,1.14A.51.51,0,0,1,112.32,110.18Z"/><path class="cls-9" d="M124.44,124v10.45s3.12,5.33,7.34,5.69,7.95-4.58,7.95-4.58V124.71Z"/><path class="cls-10" d="M124.44,124v4.64c2.83,3.14,7.86,3.92,15.29,2.82v-6.73Z"/><path class="cls-9" d="M150.75,104a63.28,63.28,0,0,1-.85,6.88c-1.4,7.71-4.56,15.29-11.36,17.72-15.4,5.5-20.91-7.71-23.11-15.42-.24-.85-.46-1.8-.65-2.82-.35-1.83-.62-3.88-.84-6-.25-2.5-.42-5-.52-7.25a10.87,10.87,0,0,1,7-10.68c6.31-2.43,15.91-4.35,25,.81a10.93,10.93,0,0,1,5.55,9.28C151,98.64,151,101.2,150.75,104Z"/><path class="cls-13" d="M139,105.66c0,1.12.57,2,1.28,2s1.29-.9,1.29-2-.58-2-1.29-2S139,104.55,139,105.66Z"/><path class="cls-13" d="M123.85,105.62c0,1.12.58,2,1.29,2s1.28-.9,1.28-2-.57-2-1.28-2S123.85,104.5,123.85,105.62Z"/><path class="cls-13" d="M145.38,100s-4.93-1.95-8.72-.31l.38,2.11s5.57-.48,8.37.66A3.65,3.65,0,0,0,145.38,100Z"/><path class="cls-13" d="M120.9,100s4.92-1.95,8.71-.31l-.38,2.11s-5.56-.48-8.37.66A3.65,3.65,0,0,1,120.9,100Z"/><path class="cls-10" d="M132.22,113.48a5.45,5.45,0,0,1-1.8-.37.5.5,0,0,1-.27-.65.48.48,0,0,1,.64-.27,3,3,0,0,0,2,.18.53.53,0,0,0,.24-.46,73.66,73.66,0,0,0-.3-7.61.5.5,0,0,1,1-.08A73.32,73.32,0,0,1,134,112a1.54,1.54,0,0,1-.72,1.22A2.1,2.1,0,0,1,132.22,113.48Z"/><path class="cls-15" d="M139,117.12c-.41,2-1.76,5.8-6.3,5.8s-5.84-3.43-6.28-5.8Z"/><path class="cls-13" d="M113.94,104.39h2.26c-.25-2.26-.61-6.24,1.25-6.82,5.86-1.8-1.74-5.94.91-8s9.24-1.18,13.82-1.33,12-.08,13.82.33.81,3.41.15,5.73,2.21,4.88,2.69,7.28a10.51,10.51,0,0,1,0,2.82h1.88c.22-2.92.26-5.64.21-7.85a10.9,10.9,0,0,0-5.53-9.28c-9.1-5.16-18.69-3.24-25-.81a10.87,10.87,0,0,0-7,10.68C113.52,99.35,113.69,101.88,113.94,104.39Z"/><path class="cls-8" d="M165.68,152.47s27.29,22.58,37.67,32a65.29,65.29,0,0,0,13.51-12c6.84-8.26,9-10.47,11.76-13.87l9,4.68S217.77,204,203.28,201.51c-14.33-2.47-38-26.64-38-26.64Z"/><path class="cls-9" d="M248.92,142.81c-.9,0-2.73,2.58-4.31,5.16l-.29-.15c1.76-3.72,4.55-10.19,2.58-10.07-1.3.08-3.86,5.54-5.31,8.87l-.54-.2c1.66-4,4.66-11.85,2.43-11.6-1.49.17-4.19,7.05-5.49,10.61l-.49-.14c1.28-3.45,3.48-10.13,1.26-9.88-2,.23-4.85,10.72-4.85,10.72h0l-1.54,3.78s-1.37-.35-1.58-3.4-1.87-4.85-2.57-1.2c-.78,4.13-.2,8-.84,10.84a6,6,0,0,0,.57,3.71,7.68,7.68,0,0,0,2.62,3.11h0a7,7,0,0,0,9.47-1.36c2.65-3.33,5.69-7.74,6.52-11.37h0C248.45,147,250.49,142.88,248.92,142.81Z"/><rect class="cls-18" x="283.94" y="77.66" width="135.4" height="183.65" rx="5.23" transform="translate(521.13 -182.15) rotate(90)"/><path class="cls-15" d="M435,114.88V224.1a4.6,4.6,0,0,1-4.61,4.6H272.9a4.61,4.61,0,0,1-4.6-4.6V114.88a4.41,4.41,0,0,1,.18-1.26,4.6,4.6,0,0,1,2.91-3.08,4.44,4.44,0,0,1,1.51-.26H430.37a4.45,4.45,0,0,1,1.52.26,4.6,4.6,0,0,1,2.91,3.08A4.41,4.41,0,0,1,435,114.88Z"/><rect class="cls-2" x="276.13" y="194.8" width="148.76" height="11.72" rx="5.25"/><path class="cls-2" d="M310.48,140.08H278.76a2.63,2.63,0,0,1-2.63-2.63h0a2.62,2.62,0,0,1,2.63-2.63h31.72a2.63,2.63,0,0,1,2.63,2.63h0A2.63,2.63,0,0,1,310.48,140.08Z"/><path class="cls-2" d="M310.48,151H278.76a2.63,2.63,0,0,1-2.63-2.63h0a2.62,2.62,0,0,1,2.63-2.63h31.72a2.63,2.63,0,0,1,2.63,2.63h0A2.63,2.63,0,0,1,310.48,151Z"/><path class="cls-2" d="M310.48,161.82H278.76a2.63,2.63,0,0,1-2.63-2.63h0a2.62,2.62,0,0,1,2.63-2.63h31.72a2.63,2.63,0,0,1,2.63,2.63h0A2.63,2.63,0,0,1,310.48,161.82Z"/><rect class="cls-2" x="276.13" y="167.42" width="36.99" height="5.26" rx="2.63"/><path class="cls-2" d="M422.26,140.08H390.54a2.64,2.64,0,0,1-2.64-2.63h0a2.63,2.63,0,0,1,2.64-2.63h31.72a2.63,2.63,0,0,1,2.63,2.63h0A2.63,2.63,0,0,1,422.26,140.08Z"/><path class="cls-2" d="M422.26,151H390.54a2.64,2.64,0,0,1-2.64-2.63h0a2.63,2.63,0,0,1,2.64-2.63h31.72a2.63,2.63,0,0,1,2.63,2.63h0A2.63,2.63,0,0,1,422.26,151Z"/><path class="cls-2" d="M422.26,161.82H390.54a2.64,2.64,0,0,1-2.64-2.63h0a2.63,2.63,0,0,1,2.64-2.63h31.72a2.63,2.63,0,0,1,2.63,2.63h0A2.63,2.63,0,0,1,422.26,161.82Z"/><rect class="cls-2" x="387.9" y="167.42" width="36.99" height="5.26" rx="2.63"/><path class="cls-2" d="M435,114.7v11H268.3v-11a4.45,4.45,0,0,1,.18-1.28,4.65,4.65,0,0,1,2.91-3.14h160.5a4.65,4.65,0,0,1,2.91,3.14A4.45,4.45,0,0,1,435,114.7Z"/><path class="cls-15" d="M419.23,118.27v.51a1.77,1.77,0,0,1-1.77,1.77H299.73a2,2,0,0,1-2-2h0a2,2,0,0,1,2-2H417.46A1.76,1.76,0,0,1,419.23,118.27Z"/><path class="cls-20" d="M280.92,118.53V120a.55.55,0,0,1-.83.48l-1.3-.74-1.3-.75a.56.56,0,0,1,0-1l1.3-.75,1.3-.74a.55.55,0,0,1,.83.48Z"/><path class="cls-20" d="M287.67,118.53V120a.55.55,0,0,0,.83.48l1.3-.74,1.29-.75a.56.56,0,0,0,0-1l-1.29-.75-1.3-.74a.55.55,0,0,0-.83.48Z"/><path class="cls-13" d="M352.8,60.61S334,58.72,329,86.45s-8.39,45.1-7.25,59.85,49.5,10.82,57,3.42-.69-56.88-2.55-70S360.27,59.3,352.8,60.61Z"/><path class="cls-22" d="M323,193.58c.09,1.68.16,3.38.22,5.09a146.37,146.37,0,0,1-2.33,30h65.13a147.79,147.79,0,0,1-2.33-30c.13-3.64.31-7.23.54-10.73.83-12.61,2.19-24.09,3.11-32.77s1.37-14.79.29-16.15a20,20,0,0,0-4.32-3.72,105.22,105.22,0,0,0-10.12-5.87l-2-1.07c-4.17-2.17-8-4.13-10.24-5.59a17.57,17.57,0,0,1-7.25,1.83h-.4a17.54,17.54,0,0,1-7.25-1.83c-2.34,1.55-6.65,3.72-11.22,6.11l-2.45,1.29c-2.28,1.23-4.56,2.48-6.6,3.73-.86.53-1.69,1.06-2.45,1.58a20.45,20.45,0,0,0-4.49,3.83c-2.18,2.74,2.25,24,4,49.91C322.88,190.66,323,192.11,323,193.58Z"/><path class="cls-23" d="M377.12,224.77h0c-13.75-.06-25.48-6.32-32.9-11.56a75.27,75.27,0,0,1-12.95-11.46.66.66,0,0,1,.09-.93.66.66,0,0,1,.93.08A73,73,0,0,0,345,212.15c7.26,5.12,18.73,11.23,32.12,11.29a.67.67,0,0,1,0,1.33Z"/><path class="cls-23" d="M368,216.76c-11.7-2.3-22.06-11.26-22.53-11.67a.67.67,0,0,1-.07-.94.67.67,0,0,1,.94-.06c.12.11,12.31,10.65,24.74,11.78a.66.66,0,0,1-.12,1.32A29.72,29.72,0,0,1,368,216.76Z"/><path class="cls-23" d="M350.68,156.2a.66.66,0,0,1-.12-1.31c16.76-3.18,21.81-14,21.86-14.07a.67.67,0,0,1,.88-.33.66.66,0,0,1,.33.87c-.21.47-5.39,11.52-22.82,14.83Z"/><path class="cls-9" d="M371.19,128.36c-4,6.72-10.88,13.6-19.74,12.07-8.16-1.41-13.14-6.64-16.62-11.55,4.57-2.39,8.88-4.56,11.22-6.11a17.54,17.54,0,0,0,7.25,1.83h.4a17.57,17.57,0,0,0,7.25-1.83C363.15,124.23,367,126.19,371.19,128.36Z"/><path class="cls-15" d="M364.34,123.32a.53.53,0,0,0-.53.53c0,.42-.18,10.45-9.18,11.23-8.35.73-11.81-7.27-12.88-10.58a.46.46,0,0,0-.45-.33h-.1a.47.47,0,0,0-.44.62c1.14,3.42,4.78,11.68,13.29,11.38l.67,0c10-.86,10.14-12.16,10.14-12.28A.53.53,0,0,0,364.34,123.32Z"/><path class="cls-9" d="M336.89,92.78s-4.11-4.68-6.36-1.41.94,13.39,6.39,11.06Z"/><path class="cls-10" d="M335.63,99.05a.46.46,0,0,1-.44-.34,7.09,7.09,0,0,0-3.94-4.26.47.47,0,0,1-.27-.6.47.47,0,0,1,.6-.26,8,8,0,0,1,4.5,4.88.46.46,0,0,1-.33.56Z"/><path class="cls-10" d="M332.5,97.51a.42.42,0,0,1-.24-.07.47.47,0,0,1-.14-.64,4.25,4.25,0,0,1,1.74-1.37.45.45,0,0,1,.6.23.45.45,0,0,1-.23.61,3.43,3.43,0,0,0-1.34,1A.46.46,0,0,1,332.5,97.51Z"/><path class="cls-9" d="M369.54,92.78s4.11-4.68,6.36-1.41-.94,13.39-6.39,11.06Z"/><path class="cls-10" d="M370.8,99.05a.46.46,0,0,0,.44-.34,7.06,7.06,0,0,1,3.95-4.26.46.46,0,1,0-.34-.86,7.92,7.92,0,0,0-4.49,4.88.45.45,0,0,0,.32.56Z"/><path class="cls-10" d="M373.93,97.51a.42.42,0,0,0,.24-.07.47.47,0,0,0,.14-.64,4.17,4.17,0,0,0-1.74-1.37.45.45,0,0,0-.6.23.45.45,0,0,0,.23.61,3.43,3.43,0,0,1,1.34,1A.46.46,0,0,0,373.93,97.51Z"/><path class="cls-9" d="M361,112.38v10.39s-3.1,5.29-7.29,5.65-7.9-4.56-7.9-4.56V113.11Z"/><path class="cls-10" d="M361,112.38V117c-2.81,3.12-7.8,4.23-15.19,3.14v-7Z"/><path class="cls-9" d="M372,85.72a102.22,102.22,0,0,1-1.35,13.11c-.19,1-.41,2-.65,2.81-2.19,7.65-7.65,20.77-23,15.3-6.75-2.41-9.89-9.94-11.28-17.59a73.76,73.76,0,0,1-1-14.21,10.83,10.83,0,0,1,5.5-9.23c9-5.12,18.56-3.21,24.84-.8A10.83,10.83,0,0,1,372,85.72Z"/><ellipse class="cls-13" cx="345.1" cy="93.45" rx="1.28" ry="2.01"/><ellipse class="cls-13" cx="360.86" cy="93.45" rx="1.28" ry="2.01"/><path class="cls-13" d="M342.57,87.47a21.05,21.05,0,0,1,5.46-.81.94.94,0,0,1,1,1.11h0a.94.94,0,0,1-1,.78,24.08,24.08,0,0,0-7.48.91,1.41,1.41,0,0,1,.44-1A3.3,3.3,0,0,1,342.57,87.47Z"/><path class="cls-13" d="M363.19,87.51a21.5,21.5,0,0,0-5.46-.81.94.94,0,0,0-.94,1.11h0a1,1,0,0,0,1,.78,24,24,0,0,1,7.47.91,1.44,1.44,0,0,0-.43-1A3.33,3.33,0,0,0,363.19,87.51Z"/><path class="cls-10" d="M353.29,102.61a2.11,2.11,0,0,1-1.08-.26,1.51,1.51,0,0,1-.71-1.2,72.67,72.67,0,0,1,.29-7.74.5.5,0,0,1,1,.08,72.46,72.46,0,0,0-.3,7.55.53.53,0,0,0,.24.46,3,3,0,0,0,2-.18.49.49,0,0,1,.64.27.49.49,0,0,1-.27.64A5.27,5.27,0,0,1,353.29,102.61Z"/><path class="cls-15" d="M347,105.72c.37,1.88,1.61,5.33,5.79,5.33s5.36-3.15,5.76-5.33Z"/><path class="cls-10" d="M352.75,113.93a4.82,4.82,0,0,1-2.31-.68.48.48,0,0,1-.16-.68.49.49,0,0,1,.67-.16h0a3.93,3.93,0,0,0,1.8.53,4.09,4.09,0,0,0,1.89-.53.5.5,0,0,1,.68.17.49.49,0,0,1-.16.67A5.13,5.13,0,0,1,352.75,113.93Z"/><path class="cls-13" d="M373.94,84.91a1.63,1.63,0,0,1-1.18.91,33.72,33.72,0,0,1-.18,3.65c-.61,7.13-2.28,9.78-3.07,9.58-1-.27.66-8.3.93-13-1.41-.09-3.41-.32-3.41-.32l-1.66-6.92-.58,6.83c-2.48.87-8.26-.52-8.26-.52l-1.95-6.82-1.2,6.57c-3.72,1.81-8.37.6-8.37.6L344,78.35l-2.47,7.08a35.78,35.78,0,0,1-6.07,1.23c-.28,3.12,1.17,9.59.87,12.09-.4,3.33-2.07.3-3-7.31a29.94,29.94,0,0,1,.17-6.21h0c.09-.81.16-1.37.17-1.48v0c.37-2.18,1.25-5.49,2-8.22a15,15,0,0,1,7.21-9.15c9.85-5.28,20.26-2.47,23.83-.34C374.25,70.52,373.94,84.91,373.94,84.91Z"/><path class="cls-13" d="M333.62,83.74c0,.11-.08.67-.17,1.48A10.83,10.83,0,0,1,333.62,83.74Z"/><path class="cls-22" d="M395.63,190.83c-3.28,9.37-17.94,8.69-34.64,3.57l-.07,0-.15-.05-2.3-.73-1-.31c-1.8-.61-3.62-1.26-5.44-1.95a186.46,186.46,0,0,1-17.64-7.82l0-.1,1.7-4.43.59-1.51s31,3.37,46.52.12l.77-.17a8.51,8.51,0,0,0-.18-1c-8.24-28.07.78-33.46,3.79-37.37C387.67,139,401.81,173.14,395.63,190.83Z"/><path class="cls-24" d="M390.58,182.14a.72.72,0,0,1-.29.06.66.66,0,0,1-.59-.36c-1.18-2.42-5.18-3.86-6.41-4.25l.77-.17-.18-1c1.57.52,5.65,2.09,7,4.87A.66.66,0,0,1,390.58,182.14Z"/><path class="cls-24" d="M347.22,181c-6.31,0-11.44-.36-11.89-.39a.66.66,0,0,1,.1-1.32c.23,0,23.45,1.66,32.61-2.05a.66.66,0,0,1,.86.36.67.67,0,0,1-.37.86C363.46,180.47,354.55,181,347.22,181Z"/><path class="cls-24" d="M358.47,193.59h0c5.3-1.46,10.11-2.88,12.9-3.77,3.86-1.24,7.05-5.14,8.5-8.46a.66.66,0,0,1,1.21.53c-1.57,3.59-5.06,7.82-9.31,9.19-2,.64-5.1,1.57-8.66,2.58a8,8,0,0,1-4.64-.07Z"/><path class="cls-22" d="M372.75,189.05c-47.84,16.12-62.56,5.57-62.56,5.57-3.22-29.12,8.65-55.32,8.65-55.32,3.5,5.79,7.47,15.88,7.47,15.88l1.05,22.32-.08.62,0,.3-.2,1.52v0l.31.07c14.47,3.05,40.93-.36,40.93-.36Z"/><path class="cls-25" d="M327.35,180a46.69,46.69,0,0,0-7.23,7.53.66.66,0,0,1-1.05-.8h0a48,48,0,0,1,8.17-8.35l-.2,1.52v0Z"/><path class="cls-26" d="M368.28,179.68s5.3-12,13.35-11l2.43,8.7c-4.41,1.87-5.05,9.43-11.31,11.63Z"/><path class="cls-26" d="M336.77,177.47a19.19,19.19,0,0,0-12.15-10.13c-8.8-2.28-14.41,1.87-15,3.43s3.32.07,3.32.07a7.64,7.64,0,0,0-4,3.12c-1.46,2.39,3.55-.19,3.55-.19s-3.59,1.58-4.05,3,4.29-1,5.18-1c0,0-4.24,1.68-4.21,3.19s4.87-.95,8.48-.76A57.24,57.24,0,0,1,327,180a61.11,61.11,0,0,0,8.34,1.09Z"/><rect class="cls-18" x="51.72" y="242.79" width="126.99" height="172.24" rx="5.23"/><path class="cls-15" d="M170.74,255.63V402.18a4.89,4.89,0,0,1-4.88,4.88H64.56a4.87,4.87,0,0,1-4.88-4.88V255.63a4.88,4.88,0,0,1,4.88-4.88h101.3A4.89,4.89,0,0,1,170.74,255.63Z"/><path class="cls-2" d="M98.35,283.15H66.62A2.63,2.63,0,0,1,64,280.52h0a2.63,2.63,0,0,1,2.63-2.63H98.35a2.63,2.63,0,0,1,2.63,2.63h0A2.63,2.63,0,0,1,98.35,283.15Z"/><path class="cls-2" d="M98.35,294H66.62A2.63,2.63,0,0,1,64,291.39h0a2.63,2.63,0,0,1,2.63-2.63H98.35a2.63,2.63,0,0,1,2.63,2.63h0A2.63,2.63,0,0,1,98.35,294Z"/><path class="cls-2" d="M98.35,304.89H66.62A2.63,2.63,0,0,1,64,302.26h0a2.63,2.63,0,0,1,2.63-2.63H98.35a2.63,2.63,0,0,1,2.63,2.63h0A2.63,2.63,0,0,1,98.35,304.89Z"/><path class="cls-2" d="M98.35,315.76H66.62A2.63,2.63,0,0,1,64,313.13h0a2.63,2.63,0,0,1,2.63-2.63H98.35a2.63,2.63,0,0,1,2.63,2.63h0A2.63,2.63,0,0,1,98.35,315.76Z"/><path class="cls-2" d="M164.12,310.07H132.4a2.62,2.62,0,0,1-2.63-2.63h0a2.63,2.63,0,0,1,2.63-2.63h31.72a2.63,2.63,0,0,1,2.63,2.63h0A2.63,2.63,0,0,1,164.12,310.07Z"/><rect class="cls-2" x="129.77" y="315.68" width="36.99" height="5.26" rx="2.63"/><path class="cls-2" d="M164.12,331.81H132.4a2.62,2.62,0,0,1-2.63-2.63h0a2.63,2.63,0,0,1,2.63-2.63h31.72a2.63,2.63,0,0,1,2.63,2.63h0A2.63,2.63,0,0,1,164.12,331.81Z"/><path class="cls-2" d="M164.12,342.68H132.4a2.63,2.63,0,0,1-2.63-2.63h0a2.63,2.63,0,0,1,2.63-2.63h31.72a2.63,2.63,0,0,1,2.63,2.63h0A2.63,2.63,0,0,1,164.12,342.68Z"/><path class="cls-2" d="M170.74,255.63v11.45H59.68V255.63a4.88,4.88,0,0,1,4.88-4.88h101.3A4.88,4.88,0,0,1,170.74,255.63Z"/><path class="cls-15" d="M156.8,257.3H93.07a2.19,2.19,0,0,0-2.2,1.82A2.14,2.14,0,0,0,93,261.58H156.8a2.14,2.14,0,0,0,2.14-2.14h0A2.14,2.14,0,0,0,156.8,257.3Z"/><path class="cls-20" d="M71.12,259.44V261a.59.59,0,0,1-.89.51l-1.37-.79-1.37-.8a.58.58,0,0,1,0-1l1.37-.79,1.37-.8a.6.6,0,0,1,.89.51Z"/><path class="cls-20" d="M78.27,259.44V261a.59.59,0,0,0,.88.51l1.38-.79,1.37-.8a.58.58,0,0,0,0-1l-1.37-.79-1.38-.8a.59.59,0,0,0-.88.51Z"/><path class="cls-22" d="M88.16,333.79c-1.14,8.34-12,35.4-14.72,58.75-.53,4.59-1.3,10-2,14.52H64.56a4.87,4.87,0,0,1-4.88-4.88v-26c.74-4.48,1.58-8.66,2.53-13.15,4.1-19.5,10.82-36.44,14.19-45.37,1.24-3.28,3.29-7.09,6.35-8.8C87.22,311.56,89.16,326.52,88.16,333.79Z"/><path class="cls-22" d="M170,404.82a4.85,4.85,0,0,1-4.1,2.24h-9.59c-.71-4.48-1.65-9.93-2.18-14.52-2.69-23.35-13.58-50.41-14.72-58.75-1-7.27.95-22.23,5.41-24.93,3.07,1.71,5.12,5.52,6.35,8.8,3.37,8.93,10.09,25.87,14.19,45.37a222.56,222.56,0,0,1,4.22,26.12C169.91,392.83,170,399,170,404.82Z"/><path class="cls-22" d="M151.68,407.06c0-1.13,0-2.28,0-3.44,0-.52,0-1,0-1.55-.06-4.56-.13-9.29-.21-14.1,0-2.38-.08-4.78-.13-7.18l0-1.68c0-.58,0-1.16,0-1.74,0-1,0-2.08-.07-3.13s-.05-2.28-.07-3.41c0-.24,0-.48,0-.72,0-.65,0-1.29-.05-1.95,0-.14,0-.29,0-.43,0-1.14-.06-2.28-.08-3.42-.7-26.72-1.88-50.5-3.76-53.27-1.36-2-4.49-4.36-8.17-6.74l-1.37-.86c-1.58-1-14.38-5.34-16-6.29l-13.54-.95c-.08.06-13,4.42-13.1,4.46-.55.32-1.12.64-1.67,1-4.8,2.76-9.52,5.67-12.25,8.18a13.08,13.08,0,0,0-1,1.07,7.23,7.23,0,0,0-.64.8,4.68,4.68,0,0,0-.47,1.19c-1.56,5.69-2.41,27.32-2.86,51.44,0,1.11,0,2.21-.06,3.33v.09c0,1,0,2.06,0,3.1,0,.15,0,.31,0,.46,0,.61,0,1.23,0,1.84,0,.37,0,.74,0,1.11s0,.88,0,1.32,0,1.11,0,1.67v.14c0,.23,0,.46,0,.69s0,.4,0,.6c0,.71,0,1.42,0,2.13,0,.47,0,.94,0,1.41l0,3c-.07,7.54-.11,14.94-.14,21.82Z"/><path class="cls-27" d="M76,367.64v.09h75c0-1.14-.06-2.28-.08-3.42H76C76,365.42,76,366.52,76,367.64Z"/><path class="cls-27" d="M75.88,374.24h75.27c0-1.13-.05-2.28-.07-3.41H75.93c0,.15,0,.31,0,.46,0,.61,0,1.23,0,1.84C75.89,373.5,75.89,373.87,75.88,374.24Z"/><path class="cls-27" d="M75.8,380.79h75.49l0-1.68c0-.58,0-1.16,0-1.74H75.84c0,.23,0,.46,0,.69s0,.4,0,.6C75.81,379.37,75.81,380.08,75.8,380.79Z"/><path class="cls-27" d="M89.14,346a.7.7,0,0,0-1.26-.43,69.75,69.75,0,0,0-10.66,21.15c-.49,1.58-.92,3.12-1.3,4.58,0,.61,0,1.23,0,1.84,0,.81,0,1.61,0,2.43,0,.55,0,1.11,0,1.67,0,.28,0,.55,0,.83s0,.4,0,.6a86,86,0,0,1,2.75-11.57A68.53,68.53,0,0,1,89,346.41a.71.71,0,0,0,.14-.42Z"/><path class="cls-27" d="M121.58,407.06c1.94-1.14,3.71-2.31,5.3-3.43a80,80,0,0,0,13.75-12.18.7.7,0,1,0-1.07-.9,78.78,78.78,0,0,1-13.53,12,73.91,73.91,0,0,1-7.3,4.55Z"/><path class="cls-27" d="M118.35,325.62a.7.7,0,0,0,.13-1.39c-17.81-3.38-23.18-14.84-23.23-15a.71.71,0,0,0-1.29.58c.23.5,5.73,12.25,24.26,15.76Z"/><path class="cls-13" d="M94.73,255.1s-1.33-8.11.64-10.87,5.18-1.93,8.62-5.11,13.88-.14,18.46-1c2.51-.45,5.19-.11,7.66-.61,3.52-.72,5.41,2.78,4.56,6.23-.54,2.19-1.65,5.49-4.82,6.35C129.85,250.12,99.43,244.58,94.73,255.1Z"/><path class="cls-13" d="M94,261.58c0,11.75,7.23,19.85,19,19.85S133,272.72,133,261s-7-20.65-18.7-20.65C100.16,240.32,94,249.83,94,261.58Z"/><path class="cls-10" d="M96.67,266.64s-3.26-4.35-5.69-.75,1,14.22,7,11.63Z"/><path class="cls-14" d="M96.63,274.23a.49.49,0,0,1-.48-.36,7.79,7.79,0,0,0-4.36-4.63.5.5,0,0,1,.36-.94,8.66,8.66,0,0,1,5,5.3.51.51,0,0,1-.35.62Z"/><path class="cls-14" d="M93.2,272.58a.45.45,0,0,1-.27-.08.5.5,0,0,1-.15-.69,4.54,4.54,0,0,1,1.88-1.52.51.51,0,0,1,.67.25.51.51,0,0,1-.26.67,3.65,3.65,0,0,0-1.45,1.14A.48.48,0,0,1,93.2,272.58Z"/><path class="cls-10" d="M130.31,266.64s3.27-4.35,5.69-.75-1,14.22-6.94,11.63Z"/><path class="cls-14" d="M130.35,274.23a.51.51,0,0,0,.49-.36,7.82,7.82,0,0,1,4.35-4.63.5.5,0,0,0,.29-.64.51.51,0,0,0-.64-.3,8.66,8.66,0,0,0-5,5.3.51.51,0,0,0,.35.62Z"/><path class="cls-14" d="M133.79,272.58a.47.47,0,0,0,.27-.08.5.5,0,0,0,.15-.69,4.61,4.61,0,0,0-1.89-1.52.49.49,0,0,0-.66.25.52.52,0,0,0,.25.67,3.47,3.47,0,0,1,1.45,1.14A.51.51,0,0,0,133.79,272.58Z"/><path class="cls-9" d="M121.53,286.53V297.1s-3.15,5.39-7.42,5.75-8-4.63-8-4.63V287.28Z"/><path class="cls-10" d="M121.53,286.53v4.69c-2.86,3.18-7.94,4-15.46,2.86v-6.8Z"/><path class="cls-9" d="M94.94,266.44c0,.61.1,1.23.16,1.86.16,1.57.37,3.19.66,4.8,0,.06,0,.11,0,.16,1.42,7.8,4.62,15.46,11.49,17.92,15.58,5.56,21.14-7.8,23.37-15.59.24-.86.47-1.82.66-2.85l0-.13c.21-1.15.4-2.38.56-3.64.12-.94.22-1.89.31-2.85.23-2.33.37-4.66.47-6.73a11,11,0,0,0-7-10.79c-6.39-2.46-16.09-4.4-25.29.81a11.05,11.05,0,0,0-5.6,9.39C94.7,261,94.74,263.6,94.94,266.44Z"/><path class="cls-13" d="M94.94,266.44c0,.61.1,1.23.16,1.86.16,1.57.37,3.19.66,4.8,0,.06,0,.11,0,.16,1.42,7.8,4.62,15.46,11.49,17.92,15.58,5.56,21.14-7.8,23.37-15.59.24-.86.47-1.82.66-2.85l0-.13c.21-1.15.4-2.38.56-3.64.12-.94.22-1.89.31-2.85l-2.34.61c-.66,3.52-1.66,8.66-3,11.06-2-5-13.4-.87-13.4-.87s-10.12-3.6-13.55,0a95.1,95.1,0,0,1-3.08-10.17Zm18.23,12.32c8.17-1.12,10.2,1,10.58,3.39a14,14,0,0,1-7,4.19c-2.8.64-8.48.58-12.63-2.69C103.74,281.77,103.27,276.27,113.17,278.76Z"/><path class="cls-13" d="M106.9,267.26c0,1.13-.58,2-1.3,2s-1.3-.91-1.3-2,.58-2,1.3-2S106.9,266.13,106.9,267.26Z"/><path class="cls-13" d="M122.45,267.26c0,1.13-.58,2-1.3,2s-1.3-.91-1.3-2,.58-2,1.3-2S122.45,266.13,122.45,267.26Z"/><path class="cls-13" d="M125.48,260.53s-4.09-1.62-7.25-.26l.32,1.75s4.63-.39,7,.56A3,3,0,0,0,125.48,260.53Z"/><path class="cls-13" d="M101.18,260.53s4.1-1.62,7.25-.26l-.31,1.75s-4.63-.39-7,.56A3.07,3.07,0,0,1,101.18,260.53Z"/><path class="cls-10" d="M114,276.12a5.36,5.36,0,0,1-1.85-.16.5.5,0,0,1-.35-.62.51.51,0,0,1,.62-.35,3,3,0,0,0,2-.06.55.55,0,0,0,.19-.49c0-1.76-1.23-7.54-1.24-7.6a.51.51,0,0,1,1-.2,73.56,73.56,0,0,1,1.25,7.78,1.52,1.52,0,0,1-.58,1.31A2.13,2.13,0,0,1,114,276.12Z"/><path class="cls-15" d="M107.14,279.13c.41,2.07,1.77,5.86,6.37,5.86s5.89-3.47,6.34-5.86Z"/><path class="cls-13" d="M132.14,266.73h-2.28a16.28,16.28,0,0,0-1.26-6.89c-1.55-4.17,1.75-6-.92-8.1s-9.34-1.19-14-1.34-12.16-.09-14,.33-.83,3.45-.16,5.79-2.23,4.93-2.72,7.36a10.74,10.74,0,0,0,0,2.85H95c-.22-3-.26-5.7-.22-7.93a11.05,11.05,0,0,1,5.6-9.39c9.2-5.21,18.9-3.27,25.29-.81a11,11,0,0,1,7,10.79C132.56,261.64,132.4,264.2,132.14,266.73Z"/><path class="cls-15" d="M116,268.27a6,6,0,1,1,6,6A6,6,0,0,1,116,268.27Zm.93,0a5,5,0,1,0,5-5A5.06,5.06,0,0,0,116.9,268.27Z"/><path class="cls-15" d="M99.62,268.27a6,6,0,1,1,6,6A6,6,0,0,1,99.62,268.27Zm.93,0a5,5,0,1,0,5-5A5.06,5.06,0,0,0,100.55,268.27Z"/><path class="cls-15" d="M126.92,266.34a.46.46,0,0,0,.33-.13h0a7.36,7.36,0,0,1,6.31-1.83.47.47,0,0,0,.56-.35.46.46,0,0,0-.34-.56,8.14,8.14,0,0,0-7.18,2.08.46.46,0,0,0,0,.66A.5.5,0,0,0,126.92,266.34Z"/><path class="cls-15" d="M100.52,266.34a.46.46,0,0,0,.25-.85c-.17-.12-4.41-2.85-8-2.26a.49.49,0,0,0-.39.54.47.47,0,0,0,.54.38c3.24-.53,7.31,2.09,7.35,2.12A.48.48,0,0,0,100.52,266.34Z"/><path class="cls-15" d="M111.25,266.93a3.76,3.76,0,0,1,2.58-1.52,3.42,3.42,0,0,1,2.45,1.52l.78-.51a4.31,4.31,0,0,0-3.23-1.94,4.62,4.62,0,0,0-3.33,1.9Z"/><rect class="cls-18" x="328.96" y="252.52" width="119.81" height="162.51" rx="5.23"/><rect class="cls-15" x="336.48" y="260.03" width="104.79" height="147.48" rx="4.6"/><path class="cls-2" d="M402.21,289.19h31.72a2.63,2.63,0,0,0,2.63-2.63h0a2.63,2.63,0,0,0-2.63-2.64H402.21a2.64,2.64,0,0,0-2.63,2.64h0A2.63,2.63,0,0,0,402.21,289.19Z"/><path class="cls-2" d="M402.21,300.06h31.72a2.63,2.63,0,0,0,2.63-2.64h0a2.63,2.63,0,0,0-2.63-2.63H402.21a2.63,2.63,0,0,0-2.63,2.63h0A2.64,2.64,0,0,0,402.21,300.06Z"/><path class="cls-2" d="M402.21,310.93h31.72a2.63,2.63,0,0,0,2.63-2.64h0a2.63,2.63,0,0,0-2.63-2.63H402.21a2.63,2.63,0,0,0-2.63,2.63h0A2.64,2.64,0,0,0,402.21,310.93Z"/><rect class="cls-2" x="399.58" y="316.53" width="36.99" height="5.26" rx="2.63"/><path class="cls-2" d="M345.22,322.39h31.72a2.64,2.64,0,0,0,2.64-2.63h0a2.64,2.64,0,0,0-2.64-2.64H345.22a2.64,2.64,0,0,0-2.63,2.64h0A2.63,2.63,0,0,0,345.22,322.39Z"/><path class="cls-2" d="M345.22,333.26h31.72a2.64,2.64,0,0,0,2.64-2.63h0a2.64,2.64,0,0,0-2.64-2.64H345.22a2.64,2.64,0,0,0-2.63,2.64h0A2.63,2.63,0,0,0,345.22,333.26Z"/><path class="cls-2" d="M345.22,344.13h31.72a2.64,2.64,0,0,0,2.64-2.64h0a2.64,2.64,0,0,0-2.64-2.63H345.22a2.63,2.63,0,0,0-2.63,2.63h0A2.64,2.64,0,0,0,345.22,344.13Z"/><path class="cls-2" d="M345.22,355h31.72a2.64,2.64,0,0,0,2.64-2.64h0a2.64,2.64,0,0,0-2.64-2.63H345.22a2.63,2.63,0,0,0-2.63,2.63h0A2.64,2.64,0,0,0,345.22,355Z"/><path class="cls-2" d="M441.26,264.63v10.81H336.48V264.63a4.6,4.6,0,0,1,4.6-4.6h95.58A4.6,4.6,0,0,1,441.26,264.63Z"/><path class="cls-15" d="M428.11,266.21H368a2.07,2.07,0,0,0-2.08,1.71,2,2,0,0,0,2,2.33h60.21a2,2,0,0,0,2-2h0A2,2,0,0,0,428.11,266.21Z"/><path class="cls-20" d="M347.27,268.23v1.49a.57.57,0,0,1-.84.49l-1.29-.75-1.3-.75a.55.55,0,0,1,0-1l1.3-.75,1.29-.75a.56.56,0,0,1,.84.48Z"/><path class="cls-20" d="M354,268.23v1.49a.57.57,0,0,0,.84.49l1.3-.75,1.29-.75a.55.55,0,0,0,0-1l-1.29-.75-1.3-.75a.56.56,0,0,0-.84.48Z"/><path class="cls-9" d="M347.62,360.93l6.89-53.38s4.87-2.9,11.41,1.41c0,0-3,49.66-5.8,66.88-1.29,7.86-5.32,21.77-8.75,31.67l-10.77,0c1.83-12.66,2.76-28.48,4.68-35a46.37,46.37,0,0,1,1.58-5.57Z"/><path class="cls-9" d="M429.77,360.93l-4.44-51.1a122.58,122.58,0,0,1-13.86-.87s3,49.66,5.8,66.88c1.3,7.86,5.32,21.77,8.75,31.67l10.78,0c-1.84-12.66-2.77-28.48-4.68-35a47.74,47.74,0,0,0-1.59-5.57Z"/><path class="cls-13" d="M390.38,243.76S391,230.53,383,228c-12.53-4-16,2.54-17.95,6.84-2.48,5.5-1.43,16.29,6.05,17.34C382.22,253.72,389.69,247.46,390.38,243.76Z"/><path class="cls-13" d="M398.46,288a13.77,13.77,0,0,0,13.47-10.94c1-4.59,1.9-8.66,1.9-10.94v-.06c.05-.72.09-1.44.09-2.15.09-10.44-6.35-29.51-29-26.48,0,0-18.78,2.14-20.92,20.5,0,0-.89,8.47-1.48,14.6l0,.32A13.75,13.75,0,0,0,376.19,288Z"/><path class="cls-8" d="M356.1,320.92c.2,1.43.43,2.95.68,4.57.63,4.08,1.42,8.74,2.4,13.9.28,1.51.59,3.05.9,4.64.88,4.38,1.89,9,3,14,.37,1.53.75,3.08,1.13,4.67.77,3.11,1.59,6.32,2.48,9.6-.09,1.3-.23,2.7-.45,4.18s-.42,2.88-.7,4.42c-.41,2.29-.9,4.72-1.45,7.24-.42,1.91-.86,3.87-1.32,5.86l-1,4.35c-.73,3-1.48,6.12-2.21,9.21h59.32l-2.09-9.16-1-4.31-1.43-6.22-1.56-6.88-1-4.32-.5-2.23,2.53-11.66,1-4.62L417.92,344l1-4.66L422,325.24l1-4.68,2.32-10.73-6-2.11-9-3.16-.2-.08-5-1.76-.81-.28-6.88-2s-3.86,1.83-17.39-1c0,0-3,.54-6.95,1.47l-1.34.32c-3,.73-6.46,1.66-9.57,2.72a30.06,30.06,0,0,0-7.28,3.34l-.41.3s.26,3.28,1,9.05C355.69,317.91,355.88,319.36,356.1,320.92Z"/><path class="cls-9" d="M405.14,302.72c-1.44,8.46-5.54,17-14.07,17.89-10.29,1.11-15.63-11.81-18-19.74,4-.93,8.1-1.84,8.1-1.84,13.53,2.84,16.14,1.11,16.14,1.11l7,2.3Z"/><path class="cls-15" d="M390,313.5c-10.8,0-13.38-13.32-13.4-13.46a.53.53,0,0,1,.43-.62.55.55,0,0,1,.62.42c.09.54,2.54,13.12,13,12.58,9.13-.46,9.67-10.59,9.69-11a.53.53,0,0,1,.55-.51.53.53,0,0,1,.51.55c0,.12-.59,11.53-10.69,12.05Z"/><circle class="cls-28" cx="368.03" cy="309.83" r="2.63"/><path class="cls-28" d="M365.39,322.68a2.64,2.64,0,1,1-2.63-2.63A2.64,2.64,0,0,1,365.39,322.68Z"/><path class="cls-28" d="M382.21,328.76a2.64,2.64,0,1,1-2.63-2.64A2.63,2.63,0,0,1,382.21,328.76Z"/><path class="cls-28" d="M370.48,335.94a2.63,2.63,0,1,1-3.42-1.47A2.64,2.64,0,0,1,370.48,335.94Z"/><path class="cls-28" d="M393.31,340.81a2.63,2.63,0,1,1-2.63-2.64A2.63,2.63,0,0,1,393.31,340.81Z"/><path class="cls-28" d="M410.11,346.24a2.63,2.63,0,1,1-2.63-2.64A2.63,2.63,0,0,1,410.11,346.24Z"/><path class="cls-28" d="M413.49,312.46a2.63,2.63,0,1,1-2.63-2.63A2.63,2.63,0,0,1,413.49,312.46Z"/><path class="cls-28" d="M394.38,357.63a2.64,2.64,0,1,1-2.63-2.63A2.63,2.63,0,0,1,394.38,357.63Z"/><path class="cls-28" d="M378.15,365.8a2.64,2.64,0,1,1-2.63-2.64A2.63,2.63,0,0,1,378.15,365.8Z"/><path class="cls-28" d="M376.26,350.92a2.64,2.64,0,1,1-2.63-2.63A2.64,2.64,0,0,1,376.26,350.92Z"/><path class="cls-28" d="M402.21,329.45a2.64,2.64,0,1,1-2.63-2.64A2.63,2.63,0,0,1,402.21,329.45Z"/><path class="cls-28" d="M416.78,326.12a2.64,2.64,0,1,1-2.64-2.63A2.64,2.64,0,0,1,416.78,326.12Z"/><path class="cls-28" d="M407.48,362a2.64,2.64,0,1,1-2.63-2.64A2.63,2.63,0,0,1,407.48,362Z"/><path class="cls-28" d="M408.19,382.83a2.64,2.64,0,1,1-2.64-2.63A2.64,2.64,0,0,1,408.19,382.83Z"/><path class="cls-28" d="M394.78,374.13a2.63,2.63,0,1,1-3.42-1.46A2.64,2.64,0,0,1,394.78,374.13Z"/><path class="cls-28" d="M376.85,381.85a2.64,2.64,0,1,1-3.43-1.47A2.64,2.64,0,0,1,376.85,381.85Z"/><path class="cls-29" d="M418.87,407.51l-.28-1.21-1.8-7.95-.67-2.9-.31-1.41-.14-.65-1.27-5.58c-19.88,5.87-40.94,2.39-50.28.29-.41,1.89-.87,3.86-1.33,5.85-.1.44-.2.87-.31,1.31-.16.68-.33,1.37-.5,2.05-.06.34-.14.65-.22,1-.72,3-1.47,6.14-2.21,9.22Z"/><path class="cls-10" d="M406.14,267.33s3.23-4.09,5.64-.7-1,13.39-6.89,10.95Z"/><path class="cls-14" d="M406.18,274.48a.49.49,0,0,0,.48-.34c.91-3.09,4.28-4.34,4.31-4.35a.47.47,0,0,0,.29-.61.5.5,0,0,0-.64-.28c-.16.06-3.87,1.43-4.92,5a.48.48,0,0,0,.35.59Z"/><path class="cls-14" d="M409.58,272.93a.53.53,0,0,0,.27-.08.45.45,0,0,0,.15-.65,4.49,4.49,0,0,0-1.87-1.43.51.51,0,0,0-.66.24.46.46,0,0,0,.25.62,3.55,3.55,0,0,1,1.44,1.08A.52.52,0,0,0,409.58,272.93Z"/><path class="cls-15" d="M404.68,277.51a3.5,3.5,0,1,0,4.78-.42,3.61,3.61,0,0,0-1.41-.67.61.61,0,0,1,.13-.66,4,4,0,0,1,1.78.88,4.18,4.18,0,1,1-5.92.58Z"/><path class="cls-9" d="M381.21,288.27v12.27s5.71,4.4,10.16,4.78,6-4.86,6-4.86V289Z"/><path class="cls-10" d="M381.21,289.47v4.89c3,3.32,8.29,4.49,16.14,3.33v-7.45Z"/><path class="cls-9" d="M408.08,272c-.14,1.19-.31,2.39-.52,3.59-1.41,8-6.46,16.61-12.83,18.05C381,296.77,375.24,286,373,278c-.24-.89.21-1.9,0-3-.45-2.49-1.46-5.31-1.69-8.1-.15-1.92-.27-3.83-.35-5.55a11.29,11.29,0,0,1,7-11c6.33-2.52,15.94-4.51,25,.83a11.39,11.39,0,0,1,5.55,9.62A85.73,85.73,0,0,1,408.08,272Z"/><path class="cls-10" d="M390.62,278.18a.53.53,0,0,1-.52-.45.52.52,0,0,1,.44-.61l1.83-.31-2.53-6.74a.53.53,0,1,1,1-.38l3,8-3.12.52Z"/><path class="cls-13" d="M397.21,269.26c0,1.18.61,2.13,1.36,2.13s1.35-.95,1.35-2.13-.6-2.13-1.35-2.13S397.21,268.08,397.21,269.26Z"/><path class="cls-13" d="M382.22,269.26c0,1.18.61,2.13,1.36,2.13s1.35-.95,1.35-2.13-.6-2.13-1.35-2.13S382.22,268.08,382.22,269.26Z"/><path class="cls-13" d="M402.55,263.67a25.7,25.7,0,0,0-5.64-.48c-.62,0-1.11.48-1,1h0a.87.87,0,0,0,1,.62,29.62,29.62,0,0,1,7.73.48,1,1,0,0,0-.41-.84A3.18,3.18,0,0,0,402.55,263.67Z"/><path class="cls-13" d="M380.75,263.92a26.73,26.73,0,0,1,5.64-.55c.62,0,1.12.47,1,1h0a.88.88,0,0,1-1,.64,29.38,29.38,0,0,0-7.72.59,1,1,0,0,1,.39-.85A3.43,3.43,0,0,1,380.75,263.92Z"/><path class="cls-15" d="M397.21,281.36c-.4,1.87-1.71,5.32-6.15,5.32s-5.7-3.15-6.13-5.32Z"/><path class="cls-10" d="M391.12,289.91a5.25,5.25,0,0,0,2.46-.72.53.53,0,0,0-.55-.9h0a4.12,4.12,0,0,1-1.91.57,4.39,4.39,0,0,1-2-.57.52.52,0,0,0-.54.9A5.46,5.46,0,0,0,391.12,289.91Z"/><path class="cls-13" d="M408.64,270.75c-.13.11-.25.07-.37-.14-1.82-3.21-.11-9.6-5.49-12.05a11.4,11.4,0,0,1-5.57-5.71,11.73,11.73,0,0,1-3.38,3.08,97.59,97.59,0,0,1-12.62,6.14A21.75,21.75,0,0,0,377,264.2l.12,0a9.65,9.65,0,0,0-.48,7.39c1.3,4.49-.37,11.91-3.27,13.62,0-.12,2.23-5.25,1-9.44-.71-2.39-.7-6.21-1.37-8.5-.74-.51-2.46-1.37-3-1.72-.16-2-.28-3.9-.37-5.66a11.49,11.49,0,0,1,7.36-11.26c6.67-2.57,16.8-4.6,26.4.85a11.52,11.52,0,0,1,5.84,9.8A84.29,84.29,0,0,1,408.64,270.75Z"/><path class="cls-9" d="M373,267.3s-3.76-4.56-6-1.27,1.06,13.37,6.49,11Z"/><path class="cls-15" d="M373.13,277.19a3.5,3.5,0,1,1-4.53-1.56,3.58,3.58,0,0,1,1.53-.31.81.81,0,0,0,0-.67,4.05,4.05,0,0,0-1.95.41,4.19,4.19,0,1,0,5.6,2Z"/><path class="cls-10" d="M372.16,273.66a.46.46,0,0,1-.44-.34,7.1,7.1,0,0,0-4-4.22.47.47,0,0,1-.26-.6.46.46,0,0,1,.59-.26,7.89,7.89,0,0,1,4.54,4.84.46.46,0,0,1-.32.56Z"/><path class="cls-10" d="M369,272.15a.45.45,0,0,1-.25-.07.47.47,0,0,1-.14-.64,4.24,4.24,0,0,1,1.72-1.39.46.46,0,1,1,.38.84,3.38,3.38,0,0,0-1.33,1.05A.45.45,0,0,1,369,272.15Z"/></g></svg>