<svg xmlns="http://www.w3.org/2000/svg" xmlns:xlink="http://www.w3.org/1999/xlink" width="1344" height="359" viewBox="0 0 1344 359">
  <defs>
    <clipPath id="clip-Logo2">
      <rect width="1344" height="359"/>
    </clipPath>
  </defs>
  <g id="Logo2" clip-path="url(#clip-Logo2)">
    <g id="Sin_título-1_Mesa_de_trabajo_1" data-name="Sin título-1_Mesa de trabajo 1" transform="translate(1.549 -13.961)">
      <path id="Path_1" data-name="Path 1" d="M32.11,86.81l39.02-53-1.07,53Z" fill="#00d6e7"/>
      <path id="Path_2" data-name="Path 2" d="M216.57,232.34V199.46a9.89,9.89,0,0,0-2.65-7,8.87,8.87,0,0,0-6.8-2.83H135l-.15,51.7h75.34a8.57,8.57,0,0,0,3.73-2.37A9.42,9.42,0,0,0,216.57,232.34Z" fill="#845af7"/>
      <path id="Path_3" data-name="Path 3" d="M135,138.39h82.61a8.73,8.73,0,0,0,4.63-2.44,9.22,9.22,0,0,0,2.65-6.8V93.61a9.23,9.23,0,0,0-2.65-6.8,8.78,8.78,0,0,0-4.57-2.42H134Z" fill="#845af7"/>
      <path id="Path_4" data-name="Path 4" d="M223.75,295.76H78.91a9.06,9.06,0,0,1-9.45-9.45V84.16H38.91a9.08,9.08,0,0,0-9.45,9.45v245.7a9.06,9.06,0,0,0,9.45,9.45H218.46a9.06,9.06,0,0,0,9.45-9.45V303.78a9.1,9.1,0,0,0-4.16-8Z" fill="#845af7"/>
      <path id="Path_5" data-name="Path 5" d="M78,295.76a9.36,9.36,0,0,1-6.88-2.64,9.16,9.16,0,0,1-2.67-6.81V40.61a9.17,9.17,0,0,1,2.67-6.8A9.37,9.37,0,0,1,78,31.16H256.39a9.39,9.39,0,0,1,6.88,2.65,9.17,9.17,0,0,1,2.67,6.8V76.15a9.15,9.15,0,0,1-2.67,6.8c-1.78,1.77-5.53,1.44-8.33,1.44H133.68l1,54H246.86c2.8,0,6.22-.82,8,1.07a9.86,9.86,0,0,1,2.67,7v32.88a9.4,9.4,0,0,1-2.67,6.62,9.86,9.86,0,0,1-7,3.43H134.69l-.15,51.94H259.45a9.4,9.4,0,0,1,6.88,2.65,9.19,9.19,0,0,1,2.67,6.8v35.53a9.2,9.2,0,0,1-2.67,6.81,9.4,9.4,0,0,1-6.88,2.64Z" fill="#ffc600"/>
      <path id="Path_6" data-name="Path 6" d="M133.76,241.39c1.11,0,.05.3,1,0h-.15l.15-51.65H94.15v-51l40.62-.37c.77,0-.7.13,0,0v.16l-1-53.94v-.22H68.46V286.32a9.11,9.11,0,0,0,2.68,6.8A9.32,9.32,0,0,0,78,295.76l16.28-.37c-1.51-.95,1-1-1-1l.86-.06V241.85Z" fill="#fe4283"/>
      <path id="Path_7" data-name="Path 7" d="M419.48,194.16h-87.6q1,16.2,11.1,25.3t24.5,9.11q11.81,0,19.7-5.5a29.11,29.11,0,0,0,11.1-14.7h19.6a47.15,47.15,0,0,1-17.6,25.7q-13.2,9.88-32.8,9.89a55.37,55.37,0,0,1-27.9-7,49.57,49.57,0,0,1-19.3-19.89q-7-12.91-7-29.91t6.8-29.79a47.7,47.7,0,0,1,19.1-19.71q12.3-6.89,28.3-6.9,15.6,0,27.6,6.81a47,47,0,0,1,18.5,18.69,55.24,55.24,0,0,1,6.5,26.9,107,107,0,0,1-.6,11Zm-22.8-32.7a29.83,29.83,0,0,0-12.5-11.39,38.87,38.87,0,0,0-17.5-3.91,33.77,33.77,0,0,0-23.5,8.8q-9.71,8.81-11.1,24.41h69.2a33.722,33.722,0,0,0-4.6-17.91Z" fill="#fff"/>
      <path id="Path_8" data-name="Path 8" d="M484.88,225.37l34-92.8h19.4l-43,109.59h-21.2l-43-109.59h19.6Z" fill="#fff"/>
      <path id="Path_9" data-name="Path 9" d="M655.68,194.16h-87.6q1,16.2,11.1,25.3t24.5,9.11q11.79,0,19.7-5.5a29.22,29.22,0,0,0,11.1-14.7h19.6a47.2,47.2,0,0,1-17.6,25.7q-13.2,9.88-32.8,9.89a55.37,55.37,0,0,1-27.9-7,49.5,49.5,0,0,1-19.3-19.89q-7-12.91-7-29.91t6.8-29.79a47.7,47.7,0,0,1,19.1-19.71q12.3-6.89,28.3-6.9,15.6,0,27.6,6.81a47.1,47.1,0,0,1,18.5,18.69,55.24,55.24,0,0,1,6.5,26.9,107,107,0,0,1-.6,11Zm-22.8-32.7a29.881,29.881,0,0,0-12.5-11.39,38.87,38.87,0,0,0-17.5-3.91,33.75,33.75,0,0,0-23.5,8.8q-9.71,8.81-11.1,24.41h69.2a33.65,33.65,0,0,0-4.6-17.91Z" fill="#fff"/>
      <path id="Path_10" data-name="Path 10" d="M766.08,142.66q12.39,12.1,12.4,34.91v64.59h-18v-62q0-16.4-8.2-25.09t-22.4-8.7q-14.4,0-22.9,9t-8.5,26.2v60.59h-18.2V132.57h18.2v15.59a36.231,36.231,0,0,1,14.7-13,45.67,45.67,0,0,1,20.5-4.59Q753.68,130.57,766.08,142.66Z" fill="#fff"/>
      <path id="Path_11" data-name="Path 11" d="M830.48,147.57v64.59q0,8,3.4,11.3t11.8,3.3h13.4v15.4h-16.4q-15.21,0-22.8-7t-7.6-23V147.57h-14.2v-15h14.2V105h18.2v27.61h28.6v15Z" fill="#fff"/>
      <path id="Path_12" data-name="Path 12" d="M901,237a49.77,49.77,0,0,1-19.6-19.89q-7.11-12.91-7.1-29.91,0-16.8,7.3-29.7a50.32,50.32,0,0,1,19.9-19.8,61.08,61.08,0,0,1,56.4,0,50.48,50.48,0,0,1,19.9,19.71q7.29,12.8,7.3,29.79t-7.5,29.91A52,52,0,0,1,957.28,237a58.19,58.19,0,0,1-28.4,7A56.06,56.06,0,0,1,901,237Zm46.3-13.59a35.11,35.11,0,0,0,13.9-13.8q5.3-9.21,5.3-22.41t-5.2-22.4a34.07,34.07,0,0,0-13.6-13.69,39.26,39.26,0,0,0-36.5,0,32.93,32.93,0,0,0-13.3,13.69q-5,9.21-5,22.4,0,13.41,4.9,22.6a32.47,32.47,0,0,0,13.1,13.7,36.76,36.76,0,0,0,18,4.5,38.53,38.53,0,0,0,18.38-4.63Z" fill="#fff"/>
      <path id="Path_13" data-name="Path 13" d="M1043.38,137.07q10.69-6.3,24.9-6.31a51.38,51.38,0,0,1,26.5,7,49.47,49.47,0,0,1,18.7,19.7q6.8,12.71,6.8,29.5,0,16.6-6.8,29.61a49.88,49.88,0,0,1-45.2,27.39,47.767,47.767,0,0,1-24.7-6.3,44.94,44.94,0,0,1-16.3-15.7v72.2h-18.2V132.57h18.2v20.19a43.3,43.3,0,0,1,16.1-15.69Zm53.3,28.3a34.66,34.66,0,0,0-13.5-14,37.28,37.28,0,0,0-18.7-4.8,36.43,36.43,0,0,0-18.5,4.89,35.819,35.819,0,0,0-13.6,14.2,44,44,0,0,0-5.1,21.5q0,12.41,5.1,21.71a35.819,35.819,0,0,0,13.6,14.2,36.429,36.429,0,0,0,18.5,4.89,36.84,36.84,0,0,0,18.7-4.89,35.259,35.259,0,0,0,13.5-14.2q5-9.31,5-21.91,0-12.39-5-21.59Z" fill="#fff"/>
      <path id="Path_14" data-name="Path 14" d="M1172.88,101.57l-42.6,22.8V110.76l42.6-25Zm-10.41,31V242.16h-18.19V132.57Z" fill="#fff"/>
      <path id="Path_15" data-name="Path 15" d="M1193.47,157.46a49.4,49.4,0,0,1,18.7-19.7,51.35,51.35,0,0,1,26.5-7q14.4,0,25,6.2a41.36,41.36,0,0,1,15.8,15.61v-20h18.4V242.16h-18.4v-20.4a42.9,42.9,0,0,1-16.1,15.9q-10.69,6.32-24.9,6.3a49.61,49.61,0,0,1-26.4-7.2,50.471,50.471,0,0,1-18.6-20.19q-6.79-13-6.8-29.61Q1186.67,170.16,1193.47,157.46Zm81,8.11a35.27,35.27,0,0,0-13.5-14.11,38.32,38.32,0,0,0-37.3-.09,34.759,34.759,0,0,0-13.4,14q-5,9.19-5,21.59,0,12.61,5,21.91a35.37,35.37,0,0,0,13.4,14.2,36.3,36.3,0,0,0,18.6,4.89,36.84,36.84,0,0,0,18.7-4.89,35.129,35.129,0,0,0,13.5-14.2,45.239,45.239,0,0,0,5-21.71Q1279.47,174.77,1274.47,165.57Z" fill="#fff"/>
    </g>
  </g>
</svg>
